solid OpenSCAD_Model
  facet normal -0.951065 -0.308992 0
    outer loop
      vertex 13 0 -5
      vertex 12.4271 1.76336 0
      vertex 12.4271 1.76336 -5
    endloop
  endfacet
  facet normal -0.951065 -0.308992 0
    outer loop
      vertex 12.4271 1.76336 0
      vertex 13 0 -5
      vertex 13 0 0
    endloop
  endfacet
  facet normal 0.951057 -0.309017 0
    outer loop
      vertex 7 0 0
      vertex 7.57295 1.76336 -5
      vertex 7.57295 1.76336 0
    endloop
  endfacet
  facet normal 0.951057 -0.309017 0
    outer loop
      vertex 7.57295 1.76336 -5
      vertex 7 0 0
      vertex 7 0 -5
    endloop
  endfacet
  facet normal 0 1 -0
    outer loop
      vertex 10.9271 -2.85317 -5
      vertex 9.07295 -2.85317 0
      vertex 10.9271 -2.85317 0
    endloop
  endfacet
  facet normal 0 1 0
    outer loop
      vertex 9.07295 -2.85317 0
      vertex 10.9271 -2.85317 -5
      vertex 9.07295 -2.85317 -5
    endloop
  endfacet
  facet normal 0 -1 0
    outer loop
      vertex 9.07295 2.85317 -5
      vertex 10.9271 2.85317 0
      vertex 9.07295 2.85317 0
    endloop
  endfacet
  facet normal 0 -1 -0
    outer loop
      vertex 10.9271 2.85317 0
      vertex 9.07295 2.85317 -5
      vertex 10.9271 2.85317 -5
    endloop
  endfacet
  facet normal -0.587784 -0.809018 0
    outer loop
      vertex 10.9271 2.85317 -5
      vertex 12.4271 1.76336 0
      vertex 10.9271 2.85317 0
    endloop
  endfacet
  facet normal -0.587784 -0.809018 -0
    outer loop
      vertex 12.4271 1.76336 0
      vertex 10.9271 2.85317 -5
      vertex 12.4271 1.76336 -5
    endloop
  endfacet
  facet normal 0 0 1
    outer loop
      vertex 14 0 5
      vertex 15 0 5
      vertex 14.6194 1.91342 5
    endloop
  endfacet
  facet normal 0 0 1
    outer loop
      vertex 15 0 5
      vertex 14 0 5
      vertex 14.6194 -1.91342 5
    endloop
  endfacet
  facet normal 0 0 1
    outer loop
      vertex 14.6194 1.91342 5
      vertex 13.5418 1.85889 5
      vertex 14 0 5
    endloop
  endfacet
  facet normal 0 0 1
    outer loop
      vertex 13.5355 3.53553 5
      vertex 13.5418 1.85889 5
      vertex 14.6194 1.91342 5
    endloop
  endfacet
  facet normal 0 0 1
    outer loop
      vertex 13.5355 3.53553 5
      vertex 12.2723 3.29193 5
      vertex 13.5418 1.85889 5
    endloop
  endfacet
  facet normal 0 0 1
    outer loop
      vertex 11.9134 4.6194 5
      vertex 12.2723 3.29193 5
      vertex 13.5355 3.53553 5
    endloop
  endfacet
  facet normal 0 0 1
    outer loop
      vertex 11.9134 4.6194 5
      vertex 10.4821 3.97083 5
      vertex 12.2723 3.29193 5
    endloop
  endfacet
  facet normal 0 0 1
    outer loop
      vertex 10 5 5
      vertex 10.4821 3.97083 5
      vertex 11.9134 4.6194 5
    endloop
  endfacet
  facet normal 0 0 1
    outer loop
      vertex 10 5 5
      vertex 8.58158 3.74006 5
      vertex 10.4821 3.97083 5
    endloop
  endfacet
  facet normal -0 0 1
    outer loop
      vertex 0 5 5
      vertex 8.58158 3.74006 5
      vertex 10 5 5
    endloop
  endfacet
  facet normal 0 0 1
    outer loop
      vertex 6.11623 0.957262 5
      vertex 3 0 5
      vertex 6.11623 -0.957262 5
    endloop
  endfacet
  facet normal -0 0 1
    outer loop
      vertex 2.42705 1.76336 5
      vertex 6.11623 0.957262 5
      vertex 7.00596 2.65249 5
    endloop
  endfacet
  facet normal 0 0 1
    outer loop
      vertex 8.58158 3.74006 5
      vertex 0 5 5
      vertex 7.00596 2.65249 5
    endloop
  endfacet
  facet normal 0 0 1
    outer loop
      vertex 6.11623 0.957262 5
      vertex 2.42705 1.76336 5
      vertex 3 0 5
    endloop
  endfacet
  facet normal 0 0 1
    outer loop
      vertex 7.00596 2.65249 5
      vertex 0 5 5
      vertex 2.42705 1.76336 5
    endloop
  endfacet
  facet normal 0 0 1
    outer loop
      vertex 2.42705 1.76336 5
      vertex 0 5 5
      vertex 0.927051 2.85317 5
    endloop
  endfacet
  facet normal 0 0 1
    outer loop
      vertex 0 5 5
      vertex -0.927051 2.85317 5
      vertex 0.927051 2.85317 5
    endloop
  endfacet
  facet normal -0 0 1
    outer loop
      vertex -1.91342 4.6194 5
      vertex -0.927051 2.85317 5
      vertex 0 5 5
    endloop
  endfacet
  facet normal -0 0 1
    outer loop
      vertex -3.53553 3.53553 5
      vertex -0.927051 2.85317 5
      vertex -1.91342 4.6194 5
    endloop
  endfacet
  facet normal 0 0 1
    outer loop
      vertex -0.927051 2.85317 5
      vertex -3.53553 3.53553 5
      vertex -2.42705 1.76336 5
    endloop
  endfacet
  facet normal -0 0 1
    outer loop
      vertex -4.6194 1.91342 5
      vertex -2.42705 1.76336 5
      vertex -3.53553 3.53553 5
    endloop
  endfacet
  facet normal -0 0 1
    outer loop
      vertex 13.5418 -1.85889 5
      vertex 14.6194 -1.91342 5
      vertex 14 0 5
    endloop
  endfacet
  facet normal 0 0 1
    outer loop
      vertex 13.5418 -1.85889 5
      vertex 13.5355 -3.53553 5
      vertex 14.6194 -1.91342 5
    endloop
  endfacet
  facet normal -0 0 1
    outer loop
      vertex 12.2723 -3.29193 5
      vertex 13.5355 -3.53553 5
      vertex 13.5418 -1.85889 5
    endloop
  endfacet
  facet normal 0 0 1
    outer loop
      vertex 12.2723 -3.29193 5
      vertex 11.9134 -4.6194 5
      vertex 13.5355 -3.53553 5
    endloop
  endfacet
  facet normal -0 0 1
    outer loop
      vertex 10.4821 -3.97083 5
      vertex 11.9134 -4.6194 5
      vertex 12.2723 -3.29193 5
    endloop
  endfacet
  facet normal 0 0 1
    outer loop
      vertex 10.4821 -3.97083 5
      vertex 10 -5 5
      vertex 11.9134 -4.6194 5
    endloop
  endfacet
  facet normal 0 0 1
    outer loop
      vertex 8.58158 -3.74006 5
      vertex 10 -5 5
      vertex 10.4821 -3.97083 5
    endloop
  endfacet
  facet normal 0 0 1
    outer loop
      vertex 0 -5 5
      vertex 8.58158 -3.74006 5
      vertex 7.00596 -2.65249 5
    endloop
  endfacet
  facet normal 0 0 1
    outer loop
      vertex 2.42705 -1.76336 5
      vertex 6.11623 -0.957262 5
      vertex 3 0 5
    endloop
  endfacet
  facet normal 0 0 1
    outer loop
      vertex 6.11623 -0.957262 5
      vertex 2.42705 -1.76336 5
      vertex 7.00596 -2.65249 5
    endloop
  endfacet
  facet normal 0 0 1
    outer loop
      vertex 0 -5 5
      vertex 7.00596 -2.65249 5
      vertex 2.42705 -1.76336 5
    endloop
  endfacet
  facet normal 0 0 1
    outer loop
      vertex 0 -5 5
      vertex 2.42705 -1.76336 5
      vertex 0.927051 -2.85317 5
    endloop
  endfacet
  facet normal 0 0 1
    outer loop
      vertex 8.58158 -3.74006 5
      vertex 0 -5 5
      vertex 10 -5 5
    endloop
  endfacet
  facet normal -0 0 1
    outer loop
      vertex -0.927051 -2.85317 5
      vertex 0 -5 5
      vertex 0.927051 -2.85317 5
    endloop
  endfacet
  facet normal 0 0 1
    outer loop
      vertex -0.927051 -2.85317 5
      vertex -1.91342 -4.6194 5
      vertex 0 -5 5
    endloop
  endfacet
  facet normal 0 0 1
    outer loop
      vertex -3.53553 -3.53553 5
      vertex -0.927051 -2.85317 5
      vertex -2.42705 -1.76336 5
    endloop
  endfacet
  facet normal 0 0 1
    outer loop
      vertex -4.6194 -1.91342 5
      vertex -2.42705 -1.76336 5
      vertex -3 0 5
    endloop
  endfacet
  facet normal 0 0 1
    outer loop
      vertex -0.927051 -2.85317 5
      vertex -3.53553 -3.53553 5
      vertex -1.91342 -4.6194 5
    endloop
  endfacet
  facet normal 0 0 1
    outer loop
      vertex -2.42705 1.76336 5
      vertex -4.6194 1.91342 5
      vertex -3 0 5
    endloop
  endfacet
  facet normal 0 0 1
    outer loop
      vertex -5 0 5
      vertex -3 0 5
      vertex -4.6194 1.91342 5
    endloop
  endfacet
  facet normal 0 0 1
    outer loop
      vertex -2.42705 -1.76336 5
      vertex -4.6194 -1.91342 5
      vertex -3.53553 -3.53553 5
    endloop
  endfacet
  facet normal 0 0 1
    outer loop
      vertex -3 0 5
      vertex -5 0 5
      vertex -4.6194 -1.91342 5
    endloop
  endfacet
  facet normal 0.587784 -0.809018 0
    outer loop
      vertex 7.57295 1.76336 -5
      vertex 9.07295 2.85317 0
      vertex 7.57295 1.76336 0
    endloop
  endfacet
  facet normal 0.587784 -0.809018 0
    outer loop
      vertex 9.07295 2.85317 0
      vertex 7.57295 1.76336 -5
      vertex 9.07295 2.85317 -5
    endloop
  endfacet
  facet normal -0.951065 0.308992 0
    outer loop
      vertex 12.4271 -1.76336 -5
      vertex 13 0 0
      vertex 13 0 -5
    endloop
  endfacet
  facet normal -0.951065 0.308992 0
    outer loop
      vertex 13 0 0
      vertex 12.4271 -1.76336 -5
      vertex 12.4271 -1.76336 0
    endloop
  endfacet
  facet normal 0.951057 0.309017 0
    outer loop
      vertex 7.57295 -1.76336 0
      vertex 7 0 -5
      vertex 7 0 0
    endloop
  endfacet
  facet normal 0.951057 0.309017 0
    outer loop
      vertex 7 0 -5
      vertex 7.57295 -1.76336 0
      vertex 7.57295 -1.76336 -5
    endloop
  endfacet
  facet normal 0 0 -1
    outer loop
      vertex 13 0 -5
      vertex 15 0 -5
      vertex 14.6194 -1.91342 -5
    endloop
  endfacet
  facet normal 0 0 -1
    outer loop
      vertex 12.4271 -1.76336 -5
      vertex 14.6194 -1.91342 -5
      vertex 13.5355 -3.53553 -5
    endloop
  endfacet
  facet normal 0 0 -1
    outer loop
      vertex 15 0 -5
      vertex 13 0 -5
      vertex 14.6194 1.91342 -5
    endloop
  endfacet
  facet normal 0 0 -1
    outer loop
      vertex 12.4271 1.76336 -5
      vertex 14.6194 1.91342 -5
      vertex 13 0 -5
    endloop
  endfacet
  facet normal 0 0 -1
    outer loop
      vertex 14.6194 -1.91342 -5
      vertex 12.4271 -1.76336 -5
      vertex 13 0 -5
    endloop
  endfacet
  facet normal 0 0 -1
    outer loop
      vertex 10.9271 -2.85317 -5
      vertex 13.5355 -3.53553 -5
      vertex 11.9134 -4.6194 -5
    endloop
  endfacet
  facet normal 0 0 -1
    outer loop
      vertex 13.5355 -3.53553 -5
      vertex 10.9271 -2.85317 -5
      vertex 12.4271 -1.76336 -5
    endloop
  endfacet
  facet normal 0 0 -1
    outer loop
      vertex 10 -5 -5
      vertex 10.9271 -2.85317 -5
      vertex 11.9134 -4.6194 -5
    endloop
  endfacet
  facet normal 0 0 -1
    outer loop
      vertex 10 -5 -5
      vertex 9.07295 -2.85317 -5
      vertex 10.9271 -2.85317 -5
    endloop
  endfacet
  facet normal 0 0 -1
    outer loop
      vertex 10 -5 -5
      vertex 7.57295 -1.76336 -5
      vertex 9.07295 -2.85317 -5
    endloop
  endfacet
  facet normal 0 0 -1
    outer loop
      vertex 7.57295 -1.76336 -5
      vertex 3 0 -5
      vertex 7 0 -5
    endloop
  endfacet
  facet normal 0 0 -1
    outer loop
      vertex 2.42705 -1.76336 -5
      vertex 7.57295 -1.76336 -5
      vertex 10 -5 -5
    endloop
  endfacet
  facet normal 0 0 -1
    outer loop
      vertex 7.57295 -1.76336 -5
      vertex 2.42705 -1.76336 -5
      vertex 3 0 -5
    endloop
  endfacet
  facet normal 0 0 -1
    outer loop
      vertex 0 -5 -5
      vertex 2.42705 -1.76336 -5
      vertex 10 -5 -5
    endloop
  endfacet
  facet normal 0 0 -1
    outer loop
      vertex 2.42705 -1.76336 -5
      vertex 0 -5 -5
      vertex 0.927051 -2.85317 -5
    endloop
  endfacet
  facet normal 0 0 -1
    outer loop
      vertex 0 -5 -5
      vertex -0.927051 -2.85317 -5
      vertex 0.927051 -2.85317 -5
    endloop
  endfacet
  facet normal 0 0 -1
    outer loop
      vertex -1.91342 -4.6194 -5
      vertex -0.927051 -2.85317 -5
      vertex 0 -5 -5
    endloop
  endfacet
  facet normal 0 0 -1
    outer loop
      vertex -3.53553 -3.53553 -5
      vertex -0.927051 -2.85317 -5
      vertex -1.91342 -4.6194 -5
    endloop
  endfacet
  facet normal -0 0 -1
    outer loop
      vertex -0.927051 -2.85317 -5
      vertex -3.53553 -3.53553 -5
      vertex -2.42705 -1.76336 -5
    endloop
  endfacet
  facet normal 0 0 -1
    outer loop
      vertex -4.6194 -1.91342 -5
      vertex -2.42705 -1.76336 -5
      vertex -3.53553 -3.53553 -5
    endloop
  endfacet
  facet normal -0 0 -1
    outer loop
      vertex 14.6194 1.91342 -5
      vertex 12.4271 1.76336 -5
      vertex 13.5355 3.53553 -5
    endloop
  endfacet
  facet normal 0 0 -1
    outer loop
      vertex 10.9271 2.85317 -5
      vertex 13.5355 3.53553 -5
      vertex 12.4271 1.76336 -5
    endloop
  endfacet
  facet normal -0 0 -1
    outer loop
      vertex 13.5355 3.53553 -5
      vertex 10.9271 2.85317 -5
      vertex 11.9134 4.6194 -5
    endloop
  endfacet
  facet normal 0 0 -1
    outer loop
      vertex 10.9271 2.85317 -5
      vertex 10 5 -5
      vertex 11.9134 4.6194 -5
    endloop
  endfacet
  facet normal 0 0 -1
    outer loop
      vertex 9.07295 2.85317 -5
      vertex 10 5 -5
      vertex 10.9271 2.85317 -5
    endloop
  endfacet
  facet normal 0 0 -1
    outer loop
      vertex 7.57295 1.76336 -5
      vertex 10 5 -5
      vertex 9.07295 2.85317 -5
    endloop
  endfacet
  facet normal 0 0 -1
    outer loop
      vertex 3 0 -5
      vertex 7.57295 1.76336 -5
      vertex 7 0 -5
    endloop
  endfacet
  facet normal 0 0 -1
    outer loop
      vertex 2.42705 1.76336 -5
      vertex 7.57295 1.76336 -5
      vertex 3 0 -5
    endloop
  endfacet
  facet normal 0 0 -1
    outer loop
      vertex 7.57295 1.76336 -5
      vertex 2.42705 1.76336 -5
      vertex 10 5 -5
    endloop
  endfacet
  facet normal 0 0 -1
    outer loop
      vertex 0 5 -5
      vertex 2.42705 1.76336 -5
      vertex 0.927051 2.85317 -5
    endloop
  endfacet
  facet normal 0 0 -1
    outer loop
      vertex 2.42705 1.76336 -5
      vertex 0 5 -5
      vertex 10 5 -5
    endloop
  endfacet
  facet normal 0 0 -1
    outer loop
      vertex -0.927051 2.85317 -5
      vertex 0 5 -5
      vertex 0.927051 2.85317 -5
    endloop
  endfacet
  facet normal 0 0 -1
    outer loop
      vertex -0.927051 2.85317 -5
      vertex -1.91342 4.6194 -5
      vertex 0 5 -5
    endloop
  endfacet
  facet normal 0 0 -1
    outer loop
      vertex -3.53553 3.53553 -5
      vertex -0.927051 2.85317 -5
      vertex -2.42705 1.76336 -5
    endloop
  endfacet
  facet normal 0 0 -1
    outer loop
      vertex -4.6194 1.91342 -5
      vertex -2.42705 1.76336 -5
      vertex -3 0 -5
    endloop
  endfacet
  facet normal 0 0 -1
    outer loop
      vertex -0.927051 2.85317 -5
      vertex -3.53553 3.53553 -5
      vertex -1.91342 4.6194 -5
    endloop
  endfacet
  facet normal -0 0 -1
    outer loop
      vertex -2.42705 -1.76336 -5
      vertex -4.6194 -1.91342 -5
      vertex -3 0 -5
    endloop
  endfacet
  facet normal 0 0 -1
    outer loop
      vertex -5 0 -5
      vertex -3 0 -5
      vertex -4.6194 -1.91342 -5
    endloop
  endfacet
  facet normal 0 0 -1
    outer loop
      vertex -2.42705 1.76336 -5
      vertex -4.6194 1.91342 -5
      vertex -3.53553 3.53553 -5
    endloop
  endfacet
  facet normal 0 0 -1
    outer loop
      vertex -3 0 -5
      vertex -5 0 -5
      vertex -4.6194 1.91342 -5
    endloop
  endfacet
  facet normal -0.587784 0.809018 0
    outer loop
      vertex 12.4271 -1.76336 -5
      vertex 10.9271 -2.85317 0
      vertex 12.4271 -1.76336 0
    endloop
  endfacet
  facet normal -0.587784 0.809018 0
    outer loop
      vertex 10.9271 -2.85317 0
      vertex 12.4271 -1.76336 -5
      vertex 10.9271 -2.85317 -5
    endloop
  endfacet
  facet normal 0.587784 0.809018 -0
    outer loop
      vertex 9.07295 -2.85317 -5
      vertex 7.57295 -1.76336 0
      vertex 9.07295 -2.85317 0
    endloop
  endfacet
  facet normal 0.587784 0.809018 0
    outer loop
      vertex 7.57295 -1.76336 0
      vertex 9.07295 -2.85317 -5
      vertex 7.57295 -1.76336 -5
    endloop
  endfacet
  facet normal -0.970939 -0.239328 0
    outer loop
      vertex 14 0 0
      vertex 13.5418 1.85889 5
      vertex 13.5418 1.85889 0
    endloop
  endfacet
  facet normal -0.970939 -0.239328 0
    outer loop
      vertex 13.5418 1.85889 5
      vertex 14 0 0
      vertex 14 0 5
    endloop
  endfacet
  facet normal 1 -0 0
    outer loop
      vertex 6.11623 -0.957262 5
      vertex 6.11623 0.957262 0
      vertex 6.11623 0.957262 5
    endloop
  endfacet
  facet normal 1 0 0
    outer loop
      vertex 6.11623 0.957262 0
      vertex 6.11623 -0.957262 5
      vertex 6.11623 -0.957262 0
    endloop
  endfacet
  facet normal 0.120539 -0.992709 0
    outer loop
      vertex 8.58158 3.74006 0
      vertex 10.4821 3.97083 5
      vertex 8.58158 3.74006 5
    endloop
  endfacet
  facet normal 0.120539 -0.992709 0
    outer loop
      vertex 10.4821 3.97083 5
      vertex 8.58158 3.74006 0
      vertex 10.4821 3.97083 0
    endloop
  endfacet
  facet normal -0.748527 -0.663104 0
    outer loop
      vertex 13.5418 1.85889 0
      vertex 12.2723 3.29193 5
      vertex 12.2723 3.29193 0
    endloop
  endfacet
  facet normal -0.748527 -0.663104 0
    outer loop
      vertex 12.2723 3.29193 5
      vertex 13.5418 1.85889 0
      vertex 13.5418 1.85889 5
    endloop
  endfacet
  facet normal 0.568064 -0.822984 0
    outer loop
      vertex 7.00596 2.65249 0
      vertex 8.58158 3.74006 5
      vertex 7.00596 2.65249 5
    endloop
  endfacet
  facet normal 0.568064 -0.822984 0
    outer loop
      vertex 8.58158 3.74006 5
      vertex 7.00596 2.65249 0
      vertex 8.58158 3.74006 0
    endloop
  endfacet
  facet normal -0.35459 0.935022 0
    outer loop
      vertex 12.2723 -3.29193 0
      vertex 10.4821 -3.97083 5
      vertex 12.2723 -3.29193 5
    endloop
  endfacet
  facet normal -0.35459 0.935022 0
    outer loop
      vertex 10.4821 -3.97083 5
      vertex 12.2723 -3.29193 0
      vertex 10.4821 -3.97083 0
    endloop
  endfacet
  facet normal -0.35459 -0.935022 0
    outer loop
      vertex 10.4821 3.97083 0
      vertex 12.2723 3.29193 5
      vertex 10.4821 3.97083 5
    endloop
  endfacet
  facet normal -0.35459 -0.935022 -0
    outer loop
      vertex 12.2723 3.29193 5
      vertex 10.4821 3.97083 0
      vertex 12.2723 3.29193 0
    endloop
  endfacet
  facet normal 0.885455 -0.464726 0
    outer loop
      vertex 6.11623 0.957262 5
      vertex 7.00596 2.65249 0
      vertex 7.00596 2.65249 5
    endloop
  endfacet
  facet normal 0.885455 -0.464726 0
    outer loop
      vertex 7.00596 2.65249 0
      vertex 6.11623 0.957262 5
      vertex 6.11623 0.957262 0
    endloop
  endfacet
  facet normal -0.748527 0.663104 0
    outer loop
      vertex 12.2723 -3.29193 0
      vertex 13.5418 -1.85889 5
      vertex 13.5418 -1.85889 0
    endloop
  endfacet
  facet normal -0.748527 0.663104 0
    outer loop
      vertex 13.5418 -1.85889 5
      vertex 12.2723 -3.29193 0
      vertex 12.2723 -3.29193 5
    endloop
  endfacet
  facet normal 0 0 1
    outer loop
      vertex 13 0 0
      vertex 14 0 0
      vertex 13.5418 1.85889 0
    endloop
  endfacet
  facet normal 0 0 1
    outer loop
      vertex 14 0 0
      vertex 13 0 0
      vertex 13.5418 -1.85889 0
    endloop
  endfacet
  facet normal 0 0 1
    outer loop
      vertex 13.5418 1.85889 0
      vertex 12.4271 1.76336 0
      vertex 13 0 0
    endloop
  endfacet
  facet normal 0 0 1
    outer loop
      vertex 12.2723 3.29193 0
      vertex 12.4271 1.76336 0
      vertex 13.5418 1.85889 0
    endloop
  endfacet
  facet normal 0 0 1
    outer loop
      vertex 12.2723 3.29193 0
      vertex 10.9271 2.85317 0
      vertex 12.4271 1.76336 0
    endloop
  endfacet
  facet normal 0 0 1
    outer loop
      vertex 10.4821 3.97083 0
      vertex 10.9271 2.85317 0
      vertex 12.2723 3.29193 0
    endloop
  endfacet
  facet normal 0 0 1
    outer loop
      vertex 10.4821 3.97083 0
      vertex 9.07295 2.85317 0
      vertex 10.9271 2.85317 0
    endloop
  endfacet
  facet normal -0 0 1
    outer loop
      vertex 8.58158 3.74006 0
      vertex 9.07295 2.85317 0
      vertex 10.4821 3.97083 0
    endloop
  endfacet
  facet normal 0 0 1
    outer loop
      vertex 7.00596 2.65249 0
      vertex 9.07295 2.85317 0
      vertex 8.58158 3.74006 0
    endloop
  endfacet
  facet normal 0 0 1
    outer loop
      vertex 9.07295 2.85317 0
      vertex 7.00596 2.65249 0
      vertex 7.57295 1.76336 0
    endloop
  endfacet
  facet normal 0 0 1
    outer loop
      vertex 6.11623 0.957262 0
      vertex 7.57295 1.76336 0
      vertex 7.00596 2.65249 0
    endloop
  endfacet
  facet normal 0 0 1
    outer loop
      vertex 7.57295 1.76336 0
      vertex 6.11623 0.957262 0
      vertex 7 0 0
    endloop
  endfacet
  facet normal -0 0 1
    outer loop
      vertex 12.4271 -1.76336 0
      vertex 13.5418 -1.85889 0
      vertex 13 0 0
    endloop
  endfacet
  facet normal 0 0 1
    outer loop
      vertex 12.4271 -1.76336 0
      vertex 12.2723 -3.29193 0
      vertex 13.5418 -1.85889 0
    endloop
  endfacet
  facet normal -0 0 1
    outer loop
      vertex 10.9271 -2.85317 0
      vertex 12.2723 -3.29193 0
      vertex 12.4271 -1.76336 0
    endloop
  endfacet
  facet normal 0 0 1
    outer loop
      vertex 10.9271 -2.85317 0
      vertex 10.4821 -3.97083 0
      vertex 12.2723 -3.29193 0
    endloop
  endfacet
  facet normal -0 0 1
    outer loop
      vertex 9.07295 -2.85317 0
      vertex 10.4821 -3.97083 0
      vertex 10.9271 -2.85317 0
    endloop
  endfacet
  facet normal 0 0 1
    outer loop
      vertex 9.07295 -2.85317 0
      vertex 8.58158 -3.74006 0
      vertex 10.4821 -3.97083 0
    endloop
  endfacet
  facet normal -0 0 1
    outer loop
      vertex 7.00596 -2.65249 0
      vertex 9.07295 -2.85317 0
      vertex 7.57295 -1.76336 0
    endloop
  endfacet
  facet normal 0 0 1
    outer loop
      vertex 9.07295 -2.85317 0
      vertex 7.00596 -2.65249 0
      vertex 8.58158 -3.74006 0
    endloop
  endfacet
  facet normal -0 0 1
    outer loop
      vertex 6.11623 -0.957262 0
      vertex 7.57295 -1.76336 0
      vertex 7 0 0
    endloop
  endfacet
  facet normal 0 0 1
    outer loop
      vertex 6.11623 -0.957262 0
      vertex 7 0 0
      vertex 6.11623 0.957262 0
    endloop
  endfacet
  facet normal 0 0 1
    outer loop
      vertex 7.57295 -1.76336 0
      vertex 6.11623 -0.957262 0
      vertex 7.00596 -2.65249 0
    endloop
  endfacet
  facet normal -0.970939 0.239328 0
    outer loop
      vertex 13.5418 -1.85889 0
      vertex 14 0 5
      vertex 14 0 0
    endloop
  endfacet
  facet normal -0.970939 0.239328 0
    outer loop
      vertex 14 0 5
      vertex 13.5418 -1.85889 0
      vertex 13.5418 -1.85889 5
    endloop
  endfacet
  facet normal 0.120539 0.992709 -0
    outer loop
      vertex 10.4821 -3.97083 0
      vertex 8.58158 -3.74006 5
      vertex 10.4821 -3.97083 5
    endloop
  endfacet
  facet normal 0.120539 0.992709 0
    outer loop
      vertex 8.58158 -3.74006 5
      vertex 10.4821 -3.97083 0
      vertex 8.58158 -3.74006 0
    endloop
  endfacet
  facet normal 0.568064 0.822984 -0
    outer loop
      vertex 8.58158 -3.74006 0
      vertex 7.00596 -2.65249 5
      vertex 8.58158 -3.74006 5
    endloop
  endfacet
  facet normal 0.568064 0.822984 0
    outer loop
      vertex 7.00596 -2.65249 5
      vertex 8.58158 -3.74006 0
      vertex 7.00596 -2.65249 0
    endloop
  endfacet
  facet normal 0.885455 0.464726 0
    outer loop
      vertex 7.00596 -2.65249 5
      vertex 6.11623 -0.957262 0
      vertex 6.11623 -0.957262 5
    endloop
  endfacet
  facet normal 0.885455 0.464726 0
    outer loop
      vertex 6.11623 -0.957262 0
      vertex 7.00596 -2.65249 5
      vertex 7.00596 -2.65249 0
    endloop
  endfacet
  facet normal -0.980786 0.195089 0
    outer loop
      vertex -5 0 -5
      vertex -4.6194 1.91342 5
      vertex -4.6194 1.91342 -5
    endloop
  endfacet
  facet normal -0.980786 0.195089 0
    outer loop
      vertex -4.6194 1.91342 5
      vertex -5 0 -5
      vertex -5 0 5
    endloop
  endfacet
  facet normal -0.980786 -0.195089 0
    outer loop
      vertex -4.6194 -1.91342 -5
      vertex -5 0 5
      vertex -5 0 -5
    endloop
  endfacet
  facet normal -0.980786 -0.195089 0
    outer loop
      vertex -5 0 5
      vertex -4.6194 -1.91342 -5
      vertex -4.6194 -1.91342 5
    endloop
  endfacet
  facet normal 0.980786 -0.195089 0
    outer loop
      vertex 14.6194 -1.91342 5
      vertex 15 0 -5
      vertex 15 0 5
    endloop
  endfacet
  facet normal 0.980786 -0.195089 0
    outer loop
      vertex 15 0 -5
      vertex 14.6194 -1.91342 5
      vertex 14.6194 -1.91342 -5
    endloop
  endfacet
  facet normal -0.831467 0.555574 0
    outer loop
      vertex -4.6194 1.91342 -5
      vertex -3.53553 3.53553 5
      vertex -3.53553 3.53553 -5
    endloop
  endfacet
  facet normal -0.831467 0.555574 0
    outer loop
      vertex -3.53553 3.53553 5
      vertex -4.6194 1.91342 -5
      vertex -4.6194 1.91342 5
    endloop
  endfacet
  facet normal -0.555574 -0.831467 0
    outer loop
      vertex -3.53553 -3.53553 -5
      vertex -1.91342 -4.6194 5
      vertex -3.53553 -3.53553 5
    endloop
  endfacet
  facet normal -0.555574 -0.831467 -0
    outer loop
      vertex -1.91342 -4.6194 5
      vertex -3.53553 -3.53553 -5
      vertex -1.91342 -4.6194 -5
    endloop
  endfacet
  facet normal -0.195089 -0.980786 0
    outer loop
      vertex -1.91342 -4.6194 -5
      vertex 0 -5 5
      vertex -1.91342 -4.6194 5
    endloop
  endfacet
  facet normal -0.195089 -0.980786 -0
    outer loop
      vertex 0 -5 5
      vertex -1.91342 -4.6194 -5
      vertex 0 -5 -5
    endloop
  endfacet
  facet normal 0 -1 0
    outer loop
      vertex 0 -5 -5
      vertex 10 -5 5
      vertex 0 -5 5
    endloop
  endfacet
  facet normal 0 -1 -0
    outer loop
      vertex 10 -5 5
      vertex 0 -5 -5
      vertex 10 -5 -5
    endloop
  endfacet
  facet normal 0.195091 0.980785 -0
    outer loop
      vertex 11.9134 4.6194 -5
      vertex 10 5 5
      vertex 11.9134 4.6194 5
    endloop
  endfacet
  facet normal 0.195091 0.980785 0
    outer loop
      vertex 10 5 5
      vertex 11.9134 4.6194 -5
      vertex 10 5 -5
    endloop
  endfacet
  facet normal -0.195089 0.980786 0
    outer loop
      vertex 0 5 -5
      vertex -1.91342 4.6194 5
      vertex 0 5 5
    endloop
  endfacet
  facet normal -0.195089 0.980786 0
    outer loop
      vertex -1.91342 4.6194 5
      vertex 0 5 -5
      vertex -1.91342 4.6194 -5
    endloop
  endfacet
  facet normal 0 1 -0
    outer loop
      vertex 10 5 -5
      vertex 0 5 5
      vertex 10 5 5
    endloop
  endfacet
  facet normal 0 1 0
    outer loop
      vertex 0 5 5
      vertex 10 5 -5
      vertex 0 5 -5
    endloop
  endfacet
  facet normal -0.555574 0.831467 0
    outer loop
      vertex -1.91342 4.6194 -5
      vertex -3.53553 3.53553 5
      vertex -1.91342 4.6194 5
    endloop
  endfacet
  facet normal -0.555574 0.831467 0
    outer loop
      vertex -3.53553 3.53553 5
      vertex -1.91342 4.6194 -5
      vertex -3.53553 3.53553 -5
    endloop
  endfacet
  facet normal -0.831467 -0.555574 0
    outer loop
      vertex -3.53553 -3.53553 -5
      vertex -4.6194 -1.91342 5
      vertex -4.6194 -1.91342 -5
    endloop
  endfacet
  facet normal -0.831467 -0.555574 0
    outer loop
      vertex -4.6194 -1.91342 5
      vertex -3.53553 -3.53553 -5
      vertex -3.53553 -3.53553 5
    endloop
  endfacet
  facet normal 0.83146 0.555585 0
    outer loop
      vertex 14.6194 1.91342 5
      vertex 13.5355 3.53553 -5
      vertex 13.5355 3.53553 5
    endloop
  endfacet
  facet normal 0.83146 0.555585 0
    outer loop
      vertex 13.5355 3.53553 -5
      vertex 14.6194 1.91342 5
      vertex 14.6194 1.91342 -5
    endloop
  endfacet
  facet normal 0.980786 0.195089 0
    outer loop
      vertex 15 0 5
      vertex 14.6194 1.91342 -5
      vertex 14.6194 1.91342 5
    endloop
  endfacet
  facet normal 0.980786 0.195089 0
    outer loop
      vertex 14.6194 1.91342 -5
      vertex 15 0 5
      vertex 15 0 -5
    endloop
  endfacet
  facet normal 0.555576 0.831465 -0
    outer loop
      vertex 13.5355 3.53553 -5
      vertex 11.9134 4.6194 5
      vertex 13.5355 3.53553 5
    endloop
  endfacet
  facet normal 0.555576 0.831465 0
    outer loop
      vertex 11.9134 4.6194 5
      vertex 13.5355 3.53553 -5
      vertex 11.9134 4.6194 -5
    endloop
  endfacet
  facet normal 0.83146 -0.555585 0
    outer loop
      vertex 13.5355 -3.53553 5
      vertex 14.6194 -1.91342 -5
      vertex 14.6194 -1.91342 5
    endloop
  endfacet
  facet normal 0.83146 -0.555585 0
    outer loop
      vertex 14.6194 -1.91342 -5
      vertex 13.5355 -3.53553 5
      vertex 13.5355 -3.53553 -5
    endloop
  endfacet
  facet normal 0.555576 -0.831465 0
    outer loop
      vertex 11.9134 -4.6194 -5
      vertex 13.5355 -3.53553 5
      vertex 11.9134 -4.6194 5
    endloop
  endfacet
  facet normal 0.555576 -0.831465 0
    outer loop
      vertex 13.5355 -3.53553 5
      vertex 11.9134 -4.6194 -5
      vertex 13.5355 -3.53553 -5
    endloop
  endfacet
  facet normal 0.195091 -0.980785 0
    outer loop
      vertex 10 -5 -5
      vertex 11.9134 -4.6194 5
      vertex 10 -5 5
    endloop
  endfacet
  facet normal 0.195091 -0.980785 0
    outer loop
      vertex 11.9134 -4.6194 5
      vertex 10 -5 -5
      vertex 11.9134 -4.6194 -5
    endloop
  endfacet
  facet normal -0.951057 -0.309017 0
    outer loop
      vertex 3 0 -5
      vertex 2.42705 1.76336 5
      vertex 2.42705 1.76336 -5
    endloop
  endfacet
  facet normal -0.951057 -0.309017 0
    outer loop
      vertex 2.42705 1.76336 5
      vertex 3 0 -5
      vertex 3 0 5
    endloop
  endfacet
  facet normal 0.951057 -0.309017 0
    outer loop
      vertex -3 0 5
      vertex -2.42705 1.76336 -5
      vertex -2.42705 1.76336 5
    endloop
  endfacet
  facet normal 0.951057 -0.309017 0
    outer loop
      vertex -2.42705 1.76336 -5
      vertex -3 0 5
      vertex -3 0 -5
    endloop
  endfacet
  facet normal 0 1 -0
    outer loop
      vertex 0.927051 -2.85317 -5
      vertex -0.927051 -2.85317 5
      vertex 0.927051 -2.85317 5
    endloop
  endfacet
  facet normal 0 1 0
    outer loop
      vertex -0.927051 -2.85317 5
      vertex 0.927051 -2.85317 -5
      vertex -0.927051 -2.85317 -5
    endloop
  endfacet
  facet normal 0 -1 0
    outer loop
      vertex -0.927051 2.85317 -5
      vertex 0.927051 2.85317 5
      vertex -0.927051 2.85317 5
    endloop
  endfacet
  facet normal 0 -1 -0
    outer loop
      vertex 0.927051 2.85317 5
      vertex -0.927051 2.85317 -5
      vertex 0.927051 2.85317 -5
    endloop
  endfacet
  facet normal -0.587784 -0.809018 0
    outer loop
      vertex 0.927051 2.85317 -5
      vertex 2.42705 1.76336 5
      vertex 0.927051 2.85317 5
    endloop
  endfacet
  facet normal -0.587784 -0.809018 -0
    outer loop
      vertex 2.42705 1.76336 5
      vertex 0.927051 2.85317 -5
      vertex 2.42705 1.76336 -5
    endloop
  endfacet
  facet normal 0.587784 -0.809018 0
    outer loop
      vertex -2.42705 1.76336 -5
      vertex -0.927051 2.85317 5
      vertex -2.42705 1.76336 5
    endloop
  endfacet
  facet normal 0.587784 -0.809018 0
    outer loop
      vertex -0.927051 2.85317 5
      vertex -2.42705 1.76336 -5
      vertex -0.927051 2.85317 -5
    endloop
  endfacet
  facet normal -0.951057 0.309017 0
    outer loop
      vertex 2.42705 -1.76336 -5
      vertex 3 0 5
      vertex 3 0 -5
    endloop
  endfacet
  facet normal -0.951057 0.309017 0
    outer loop
      vertex 3 0 5
      vertex 2.42705 -1.76336 -5
      vertex 2.42705 -1.76336 5
    endloop
  endfacet
  facet normal 0.951057 0.309017 0
    outer loop
      vertex -2.42705 -1.76336 5
      vertex -3 0 -5
      vertex -3 0 5
    endloop
  endfacet
  facet normal 0.951057 0.309017 0
    outer loop
      vertex -3 0 -5
      vertex -2.42705 -1.76336 5
      vertex -2.42705 -1.76336 -5
    endloop
  endfacet
  facet normal -0.587784 0.809018 0
    outer loop
      vertex 2.42705 -1.76336 -5
      vertex 0.927051 -2.85317 5
      vertex 2.42705 -1.76336 5
    endloop
  endfacet
  facet normal -0.587784 0.809018 0
    outer loop
      vertex 0.927051 -2.85317 5
      vertex 2.42705 -1.76336 -5
      vertex 0.927051 -2.85317 -5
    endloop
  endfacet
  facet normal 0.587784 0.809018 -0
    outer loop
      vertex -0.927051 -2.85317 -5
      vertex -2.42705 -1.76336 5
      vertex -0.927051 -2.85317 5
    endloop
  endfacet
  facet normal 0.587784 0.809018 0
    outer loop
      vertex -2.42705 -1.76336 5
      vertex -0.927051 -2.85317 -5
      vertex -2.42705 -1.76336 -5
    endloop
  endfacet
endsolid OpenSCAD_Model
