solid OpenSCAD_Model
  facet normal 0 0.19509 -0.980785
    outer loop
      vertex -23 4.41342 7.3806
      vertex 1.04076 3.5 7.19891
      vertex -22.5 3.5 7.19891
    endloop
  endfacet
  facet normal 0 0.19509 -0.980785
    outer loop
      vertex 1.04076 3.5 7.19891
      vertex -23 4.41342 7.3806
      vertex 23 4.41342 7.3806
    endloop
  endfacet
  facet normal -1.66876e-06 0.195089 -0.980786
    outer loop
      vertex -23 4.41342 7.3806
      vertex -22.5 3.5 7.19891
      vertex -23 2.5 7
    endloop
  endfacet
  facet normal 1.66876e-06 0.195089 -0.980786
    outer loop
      vertex 22.5 3.5 7.19891
      vertex 23 4.41342 7.3806
      vertex 23 2.5 7
    endloop
  endfacet
  facet normal 0 0.19509 -0.980785
    outer loop
      vertex 23 4.41342 7.3806
      vertex 22.5 3.5 7.19891
      vertex 1.04076 3.5 7.19891
    endloop
  endfacet
  facet normal 0 -0.195089 0.980786
    outer loop
      vertex 23 2.5 17
      vertex -23 0.586582 16.6194
      vertex 23 0.586582 16.6194
    endloop
  endfacet
  facet normal 0 -0.980785 0.195091
    outer loop
      vertex -23 -2.1194 13.9134
      vertex -23 -2.5 12
      vertex 23 -2.5 12
    endloop
  endfacet
  facet normal -0 0.980785 0.195091
    outer loop
      vertex -23 7.5 12
      vertex -23 7.1194 13.9134
      vertex 23 7.5 12
    endloop
  endfacet
  facet normal -0 0.555585 0.83146
    outer loop
      vertex -23 6.03553 15.5355
      vertex 23 4.41342 16.6194
      vertex 23 6.03553 15.5355
    endloop
  endfacet
  facet normal 0 0.555585 0.83146
    outer loop
      vertex 23 4.41342 16.6194
      vertex -23 6.03553 15.5355
      vertex -23 4.41342 16.6194
    endloop
  endfacet
  facet normal -1 0 0
    outer loop
      vertex -23 -2.5 -8
      vertex -23 2.5 7
      vertex -23 2.5 -8
    endloop
  endfacet
  facet normal -1 0 -0
    outer loop
      vertex -23 0.736644 9.57295
      vertex -23 2.5 7
      vertex -23 -2.5 -8
    endloop
  endfacet
  facet normal -1 0 0
    outer loop
      vertex -23 2.5 7
      vertex -23 0.736644 9.57295
      vertex -23 2.5 9
    endloop
  endfacet
  facet normal -1 0 0
    outer loop
      vertex -23 -2.5 12
      vertex -23 -0.353169 12.9271
      vertex -23 -0.353169 11.0729
    endloop
  endfacet
  facet normal -1 0 0
    outer loop
      vertex -23 -2.5 12
      vertex -23 0.736644 9.57295
      vertex -23 -2.5 -8
    endloop
  endfacet
  facet normal -1 -0 0
    outer loop
      vertex -23 -0.353169 12.9271
      vertex -23 -2.5 12
      vertex -23 -2.1194 13.9134
    endloop
  endfacet
  facet normal -1 0 0
    outer loop
      vertex -23 -0.353169 12.9271
      vertex -23 -2.1194 13.9134
      vertex -23 -1.03553 15.5355
    endloop
  endfacet
  facet normal -1 0 0
    outer loop
      vertex -23 0.736644 9.57295
      vertex -23 -2.5 12
      vertex -23 -0.353169 11.0729
    endloop
  endfacet
  facet normal -1 0 0
    outer loop
      vertex -23 5.35317 11.0729
      vertex -23 7.5 12
      vertex -23 7.1194 10.0866
    endloop
  endfacet
  facet normal -1 0 0
    outer loop
      vertex -23 5.35317 11.0729
      vertex -23 7.1194 10.0866
      vertex -23 6.03553 8.46447
    endloop
  endfacet
  facet normal -1 0 0
    outer loop
      vertex -23 5.35317 12.9271
      vertex -23 7.5 12
      vertex -23 5.35317 11.0729
    endloop
  endfacet
  facet normal -1 0 0
    outer loop
      vertex -23 7.5 12
      vertex -23 5.35317 12.9271
      vertex -23 7.1194 13.9134
    endloop
  endfacet
  facet normal -1 0 0
    outer loop
      vertex -23 4.26336 9.57295
      vertex -23 6.03553 8.46447
      vertex -23 4.41342 7.3806
    endloop
  endfacet
  facet normal -1 0 0
    outer loop
      vertex -23 6.03553 8.46447
      vertex -23 4.26336 9.57295
      vertex -23 5.35317 11.0729
    endloop
  endfacet
  facet normal -1 0 0
    outer loop
      vertex -23 2.5 9
      vertex -23 4.41342 7.3806
      vertex -23 2.5 7
    endloop
  endfacet
  facet normal -1 0 0
    outer loop
      vertex -23 4.41342 7.3806
      vertex -23 2.5 9
      vertex -23 4.26336 9.57295
    endloop
  endfacet
  facet normal -1 -0 0
    outer loop
      vertex -23 7.1194 13.9134
      vertex -23 5.35317 12.9271
      vertex -23 6.03553 15.5355
    endloop
  endfacet
  facet normal -1 0 0
    outer loop
      vertex -23 4.26336 14.4271
      vertex -23 6.03553 15.5355
      vertex -23 5.35317 12.9271
    endloop
  endfacet
  facet normal -1 -0 0
    outer loop
      vertex -23 6.03553 15.5355
      vertex -23 4.26336 14.4271
      vertex -23 4.41342 16.6194
    endloop
  endfacet
  facet normal -1 0 0
    outer loop
      vertex -23 2.5 15
      vertex -23 4.41342 16.6194
      vertex -23 4.26336 14.4271
    endloop
  endfacet
  facet normal -1 0 0
    outer loop
      vertex -23 2.5 15
      vertex -23 2.5 17
      vertex -23 4.41342 16.6194
    endloop
  endfacet
  facet normal -1 0 0
    outer loop
      vertex -23 0.586582 16.6194
      vertex -23 2.5 15
      vertex -23 0.736644 14.4271
    endloop
  endfacet
  facet normal -1 0 0
    outer loop
      vertex -23 2.5 15
      vertex -23 0.586582 16.6194
      vertex -23 2.5 17
    endloop
  endfacet
  facet normal -1 0 0
    outer loop
      vertex -23 -1.03553 15.5355
      vertex -23 0.736644 14.4271
      vertex -23 -0.353169 12.9271
    endloop
  endfacet
  facet normal -1 0 0
    outer loop
      vertex -23 0.736644 14.4271
      vertex -23 -1.03553 15.5355
      vertex -23 0.586582 16.6194
    endloop
  endfacet
  facet normal 0 0.195089 0.980786
    outer loop
      vertex -23 4.41342 16.6194
      vertex -23 2.5 17
      vertex 23 2.5 17
    endloop
  endfacet
  facet normal 0 0.980785 -0.195091
    outer loop
      vertex 23 7.1194 10.0866
      vertex -23 7.1194 10.0866
      vertex -23 7.5 12
    endloop
  endfacet
  facet normal 0 0.980785 -0.195091
    outer loop
      vertex 23 7.1194 10.0866
      vertex -23 7.5 12
      vertex 23 7.5 12
    endloop
  endfacet
  facet normal 0 0.83147 -0.555569
    outer loop
      vertex 23 6.03553 8.46447
      vertex -23 7.1194 10.0866
      vertex 23 7.1194 10.0866
    endloop
  endfacet
  facet normal 0 0.83147 -0.555569
    outer loop
      vertex -23 7.1194 10.0866
      vertex 23 6.03553 8.46447
      vertex -23 6.03553 8.46447
    endloop
  endfacet
  facet normal 0 0.555574 -0.831467
    outer loop
      vertex -23 4.41342 7.3806
      vertex 23 6.03553 8.46447
      vertex 23 4.41342 7.3806
    endloop
  endfacet
  facet normal 0 0.555574 -0.831467
    outer loop
      vertex 23 6.03553 8.46447
      vertex -23 4.41342 7.3806
      vertex -23 6.03553 8.46447
    endloop
  endfacet
  facet normal 1 -0 0
    outer loop
      vertex 23 5.35317 12.9271
      vertex 23 7.5 12
      vertex 23 7.1194 13.9134
    endloop
  endfacet
  facet normal 1 0 0
    outer loop
      vertex 23 5.35317 12.9271
      vertex 23 7.1194 13.9134
      vertex 23 6.03553 15.5355
    endloop
  endfacet
  facet normal 1 0 0
    outer loop
      vertex 23 5.35317 11.0729
      vertex 23 7.5 12
      vertex 23 5.35317 12.9271
    endloop
  endfacet
  facet normal 1 0 0
    outer loop
      vertex 23 7.5 12
      vertex 23 5.35317 11.0729
      vertex 23 7.1194 10.0866
    endloop
  endfacet
  facet normal 1 0 0
    outer loop
      vertex 23 4.26336 14.4271
      vertex 23 6.03553 15.5355
      vertex 23 4.41342 16.6194
    endloop
  endfacet
  facet normal 1 0 0
    outer loop
      vertex 23 6.03553 15.5355
      vertex 23 4.26336 14.4271
      vertex 23 5.35317 12.9271
    endloop
  endfacet
  facet normal 1 0 0
    outer loop
      vertex 23 2.5 15
      vertex 23 4.41342 16.6194
      vertex 23 2.5 17
    endloop
  endfacet
  facet normal 1 0 0
    outer loop
      vertex 23 4.41342 16.6194
      vertex 23 2.5 15
      vertex 23 4.26336 14.4271
    endloop
  endfacet
  facet normal 1 -0 0
    outer loop
      vertex 23 0.586582 16.6194
      vertex 23 2.5 15
      vertex 23 2.5 17
    endloop
  endfacet
  facet normal 1 0 0
    outer loop
      vertex 23 2.5 15
      vertex 23 0.586582 16.6194
      vertex 23 0.736644 14.4271
    endloop
  endfacet
  facet normal 1 -0 0
    outer loop
      vertex 23 -1.03553 15.5355
      vertex 23 0.736644 14.4271
      vertex 23 0.586582 16.6194
    endloop
  endfacet
  facet normal 1 -0 0
    outer loop
      vertex 23 -2.1194 13.9134
      vertex 23 -0.353169 12.9271
      vertex 23 -1.03553 15.5355
    endloop
  endfacet
  facet normal 1 0 0
    outer loop
      vertex 23 0.736644 14.4271
      vertex 23 -1.03553 15.5355
      vertex 23 -0.353169 12.9271
    endloop
  endfacet
  facet normal 1 0 0
    outer loop
      vertex 23 7.1194 10.0866
      vertex 23 5.35317 11.0729
      vertex 23 6.03553 8.46447
    endloop
  endfacet
  facet normal 1 -0 0
    outer loop
      vertex 23 4.26336 9.57295
      vertex 23 6.03553 8.46447
      vertex 23 5.35317 11.0729
    endloop
  endfacet
  facet normal 1 0 0
    outer loop
      vertex 23 6.03553 8.46447
      vertex 23 4.26336 9.57295
      vertex 23 4.41342 7.3806
    endloop
  endfacet
  facet normal 1 -0 0
    outer loop
      vertex 23 2.5 9
      vertex 23 4.41342 7.3806
      vertex 23 4.26336 9.57295
    endloop
  endfacet
  facet normal 1 0 0
    outer loop
      vertex 23 2.5 9
      vertex 23 2.5 7
      vertex 23 4.41342 7.3806
    endloop
  endfacet
  facet normal 1 0 0
    outer loop
      vertex 23 0.736644 9.57295
      vertex 23 2.5 7
      vertex 23 2.5 9
    endloop
  endfacet
  facet normal 1 0 0
    outer loop
      vertex 23 2.5 7
      vertex 23 0.736644 9.57295
      vertex 23 -2.5 -8
    endloop
  endfacet
  facet normal 1 0 0
    outer loop
      vertex 23 -2.5 12
      vertex 23 0.736644 9.57295
      vertex 23 -0.353169 11.0729
    endloop
  endfacet
  facet normal 1 0 0
    outer loop
      vertex 23 -2.5 12
      vertex 23 -0.353169 12.9271
      vertex 23 -2.1194 13.9134
    endloop
  endfacet
  facet normal 1 0 0
    outer loop
      vertex 23 -0.353169 12.9271
      vertex 23 -2.5 12
      vertex 23 -0.353169 11.0729
    endloop
  endfacet
  facet normal 1 0 0
    outer loop
      vertex 23 0.736644 9.57295
      vertex 23 -2.5 12
      vertex 23 -2.5 -8
    endloop
  endfacet
  facet normal 1 0 0
    outer loop
      vertex 23 2.5 7
      vertex 23 -2.5 -8
      vertex 23 2.5 -8
    endloop
  endfacet
  facet normal 0 -0.980785 0.195091
    outer loop
      vertex 23 -2.1194 13.9134
      vertex -23 -2.1194 13.9134
      vertex 23 -2.5 12
    endloop
  endfacet
  facet normal 0 0.195089 0.980786
    outer loop
      vertex 23 4.41342 16.6194
      vertex -23 4.41342 16.6194
      vertex 23 2.5 17
    endloop
  endfacet
  facet normal 0 -0.195089 0.980786
    outer loop
      vertex -23 2.5 17
      vertex -23 0.586582 16.6194
      vertex 23 2.5 17
    endloop
  endfacet
  facet normal 0 0.831465 0.555576
    outer loop
      vertex 23 7.1194 13.9134
      vertex -23 6.03553 15.5355
      vertex 23 6.03553 15.5355
    endloop
  endfacet
  facet normal 0 0.831465 0.555576
    outer loop
      vertex -23 6.03553 15.5355
      vertex 23 7.1194 13.9134
      vertex -23 7.1194 13.9134
    endloop
  endfacet
  facet normal 0 0.980785 0.195091
    outer loop
      vertex 23 7.5 12
      vertex -23 7.1194 13.9134
      vertex 23 7.1194 13.9134
    endloop
  endfacet
  facet normal 0 -0.555584 0.83146
    outer loop
      vertex -23 0.586582 16.6194
      vertex 23 -1.03553 15.5355
      vertex 23 0.586582 16.6194
    endloop
  endfacet
  facet normal 0 -0.555584 0.83146
    outer loop
      vertex 23 -1.03553 15.5355
      vertex -23 0.586582 16.6194
      vertex -23 -1.03553 15.5355
    endloop
  endfacet
  facet normal 0 -0.831465 0.555576
    outer loop
      vertex -23 -2.1194 13.9134
      vertex 23 -1.03553 15.5355
      vertex -23 -1.03553 15.5355
    endloop
  endfacet
  facet normal 0 -0.831465 0.555576
    outer loop
      vertex 23 -1.03553 15.5355
      vertex -23 -2.1194 13.9134
      vertex 23 -2.1194 13.9134
    endloop
  endfacet
  facet normal 0 -1 0
    outer loop
      vertex -12.5729 -2.5 1.76336
      vertex 14.0729 -2.5 2.85317
      vertex -14.0729 -2.5 2.85317
    endloop
  endfacet
  facet normal 0 -1 0
    outer loop
      vertex -12.5729 -2.5 1.76336
      vertex 12.5729 -2.5 1.76336
      vertex 14.0729 -2.5 2.85317
    endloop
  endfacet
  facet normal 0 -1 0
    outer loop
      vertex -12 -2.5 -5.55112e-16
      vertex 12.5729 -2.5 1.76336
      vertex -12.5729 -2.5 1.76336
    endloop
  endfacet
  facet normal 0 -1 0
    outer loop
      vertex -12 -2.5 -5.55112e-16
      vertex 12 -2.5 -5.55112e-16
      vertex 12.5729 -2.5 1.76336
    endloop
  endfacet
  facet normal 0 -1 0
    outer loop
      vertex -12.5729 -2.5 -1.76336
      vertex 12 -2.5 -5.55112e-16
      vertex -12 -2.5 -5.55112e-16
    endloop
  endfacet
  facet normal 0 -1 0
    outer loop
      vertex -12.5729 -2.5 -1.76336
      vertex 12.5729 -2.5 -1.76336
      vertex 12 -2.5 -5.55112e-16
    endloop
  endfacet
  facet normal 0 -1 0
    outer loop
      vertex -14.0729 -2.5 -2.85317
      vertex 12.5729 -2.5 -1.76336
      vertex -12.5729 -2.5 -1.76336
    endloop
  endfacet
  facet normal 0 -1 -0
    outer loop
      vertex 12.5729 -2.5 -1.76336
      vertex -14.0729 -2.5 -2.85317
      vertex 14.0729 -2.5 -2.85317
    endloop
  endfacet
  facet normal 0 -1 0
    outer loop
      vertex -14.0729 -2.5 2.85317
      vertex -23 -2.5 12
      vertex -15.9271 -2.5 2.85317
    endloop
  endfacet
  facet normal 0 -1 0
    outer loop
      vertex -23 -2.5 12
      vertex -17.4271 -2.5 1.76336
      vertex -15.9271 -2.5 2.85317
    endloop
  endfacet
  facet normal 0 -1 0
    outer loop
      vertex -23 -2.5 12
      vertex -18 -2.5 -5.55112e-16
      vertex -17.4271 -2.5 1.76336
    endloop
  endfacet
  facet normal 0 -1 0
    outer loop
      vertex -23 -2.5 -8
      vertex -18 -2.5 -5.55112e-16
      vertex -23 -2.5 12
    endloop
  endfacet
  facet normal 0 -1 0
    outer loop
      vertex -23 -2.5 -8
      vertex -14.0729 -2.5 -2.85317
      vertex -15.9271 -2.5 -2.85317
    endloop
  endfacet
  facet normal 0 -1 -0
    outer loop
      vertex -14.0729 -2.5 -2.85317
      vertex -23 -2.5 -8
      vertex 14.0729 -2.5 -2.85317
    endloop
  endfacet
  facet normal 0 -1 0
    outer loop
      vertex 23 -2.5 -8
      vertex 14.0729 -2.5 -2.85317
      vertex -23 -2.5 -8
    endloop
  endfacet
  facet normal 0 -1 -0
    outer loop
      vertex -17.4271 -2.5 -1.76336
      vertex -23 -2.5 -8
      vertex -15.9271 -2.5 -2.85317
    endloop
  endfacet
  facet normal 0 -1 -0
    outer loop
      vertex -18 -2.5 -5.55112e-16
      vertex -23 -2.5 -8
      vertex -17.4271 -2.5 -1.76336
    endloop
  endfacet
  facet normal 0 -1 0
    outer loop
      vertex -23 -2.5 12
      vertex -14.0729 -2.5 2.85317
      vertex 23 -2.5 12
    endloop
  endfacet
  facet normal 0 -1 0
    outer loop
      vertex 14.0729 -2.5 2.85317
      vertex 23 -2.5 12
      vertex -14.0729 -2.5 2.85317
    endloop
  endfacet
  facet normal 0 -1 0
    outer loop
      vertex 15.9271 -2.5 2.85317
      vertex 23 -2.5 12
      vertex 14.0729 -2.5 2.85317
    endloop
  endfacet
  facet normal 0 -1 0
    outer loop
      vertex 17.4271 -2.5 1.76336
      vertex 23 -2.5 12
      vertex 15.9271 -2.5 2.85317
    endloop
  endfacet
  facet normal 0 -1 0
    outer loop
      vertex 18 -2.5 -5.55112e-16
      vertex 23 -2.5 12
      vertex 17.4271 -2.5 1.76336
    endloop
  endfacet
  facet normal 0 -1 0
    outer loop
      vertex 23 -2.5 -8
      vertex 18 -2.5 -5.55112e-16
      vertex 17.4271 -2.5 -1.76336
    endloop
  endfacet
  facet normal 0 -1 0
    outer loop
      vertex 18 -2.5 -5.55112e-16
      vertex 23 -2.5 -8
      vertex 23 -2.5 12
    endloop
  endfacet
  facet normal 0 -1 0
    outer loop
      vertex 15.9271 -2.5 -2.85317
      vertex 23 -2.5 -8
      vertex 17.4271 -2.5 -1.76336
    endloop
  endfacet
  facet normal 0 -1 0
    outer loop
      vertex 14.0729 -2.5 -2.85317
      vertex 23 -2.5 -8
      vertex 15.9271 -2.5 -2.85317
    endloop
  endfacet
  facet normal 0 0 -1
    outer loop
      vertex -23 -2.5 -8
      vertex 23 2.5 -8
      vertex 23 -2.5 -8
    endloop
  endfacet
  facet normal -0 0 -1
    outer loop
      vertex 23 2.5 -8
      vertex -23 -2.5 -8
      vertex -23 2.5 -8
    endloop
  endfacet
  facet normal -0.894427 0.447214 0
    outer loop
      vertex -23 2.5 7
      vertex -22.5 3.5 -7
      vertex -23 2.5 -8
    endloop
  endfacet
  facet normal -0.894427 0.447214 0
    outer loop
      vertex -22.5 3.5 -7
      vertex -23 2.5 7
      vertex -22.5 3.5 7.19891
    endloop
  endfacet
  facet normal 0.894427 0.447214 0
    outer loop
      vertex 23 2.5 7
      vertex 22.5 3.5 -7
      vertex 22.5 3.5 7.19891
    endloop
  endfacet
  facet normal 0.894427 0.447214 0
    outer loop
      vertex 22.5 3.5 -7
      vertex 23 2.5 7
      vertex 23 2.5 -8
    endloop
  endfacet
  facet normal 0 1 0
    outer loop
      vertex 1.04076 3.5 7.19891
      vertex -13.5271 3.5 5.8164
      vertex -15.4955 3.5 5.97951
    endloop
  endfacet
  facet normal 0 1 -0
    outer loop
      vertex 10.9363 3.5 4.41434
      vertex 1.04076 3.5 7.19891
      vertex 12.5898 3.5 5.49464
    endloop
  endfacet
  facet normal 0 1 0
    outer loop
      vertex 1.04076 3.5 7.19891
      vertex -11.7183 3.5 5.023
      vertex -13.5271 3.5 5.8164
    endloop
  endfacet
  facet normal 0 1 -0
    outer loop
      vertex 9.72316 3.5 2.85568
      vertex 1.04076 3.5 7.19891
      vertex 10.9363 3.5 4.41434
    endloop
  endfacet
  facet normal 0 1 0
    outer loop
      vertex 1.04076 3.5 7.19891
      vertex -10.2652 3.5 3.68528
      vertex -11.7183 3.5 5.023
    endloop
  endfacet
  facet normal 0 1 -0
    outer loop
      vertex 9.08183 3.5 0.987567
      vertex 1.04076 3.5 7.19891
      vertex 9.72316 3.5 2.85568
    endloop
  endfacet
  facet normal 0 1 0
    outer loop
      vertex 1.04076 3.5 7.19891
      vertex -9.3251 3.5 1.9482
      vertex -10.2652 3.5 3.68528
    endloop
  endfacet
  facet normal 0 1 -0
    outer loop
      vertex 9.08183 3.5 -0.987567
      vertex 1.04076 3.5 7.19891
      vertex 9.08183 3.5 0.987567
    endloop
  endfacet
  facet normal 0 1 0
    outer loop
      vertex 1.04076 3.5 7.19891
      vertex -9 3.5 7.77156e-16
      vertex -9.3251 3.5 1.9482
    endloop
  endfacet
  facet normal 0 1 0
    outer loop
      vertex 1.04076 3.5 7.19891
      vertex 9.08183 3.5 -0.987567
      vertex -9 3.5 7.77156e-16
    endloop
  endfacet
  facet normal 0 1 0
    outer loop
      vertex 9.08183 3.5 -0.987567
      vertex -9.3251 3.5 -1.9482
      vertex -9 3.5 7.77156e-16
    endloop
  endfacet
  facet normal 0 1 0
    outer loop
      vertex 9.72316 3.5 -2.85568
      vertex -9.3251 3.5 -1.9482
      vertex 9.08183 3.5 -0.987567
    endloop
  endfacet
  facet normal 0 1 0
    outer loop
      vertex 9.72316 3.5 -2.85568
      vertex -10.2652 3.5 -3.68528
      vertex -9.3251 3.5 -1.9482
    endloop
  endfacet
  facet normal 0 1 0
    outer loop
      vertex 10.9363 3.5 -4.41434
      vertex -10.2652 3.5 -3.68528
      vertex 9.72316 3.5 -2.85568
    endloop
  endfacet
  facet normal 0 1 0
    outer loop
      vertex 10.9363 3.5 -4.41434
      vertex -11.7183 3.5 -5.023
      vertex -10.2652 3.5 -3.68528
    endloop
  endfacet
  facet normal 0 1 0
    outer loop
      vertex 12.5898 3.5 -5.49464
      vertex -11.7183 3.5 -5.023
      vertex 10.9363 3.5 -4.41434
    endloop
  endfacet
  facet normal 0 1 0
    outer loop
      vertex 12.5898 3.5 -5.49464
      vertex -13.5271 3.5 -5.8164
      vertex -11.7183 3.5 -5.023
    endloop
  endfacet
  facet normal 0 1 0
    outer loop
      vertex 14.5045 3.5 -5.97951
      vertex -13.5271 3.5 -5.8164
      vertex 12.5898 3.5 -5.49464
    endloop
  endfacet
  facet normal 0 1 0
    outer loop
      vertex -22.5 3.5 -7
      vertex -13.5271 3.5 -5.8164
      vertex 14.5045 3.5 -5.97951
    endloop
  endfacet
  facet normal 0 1 -0
    outer loop
      vertex 12.5898 3.5 5.49464
      vertex 1.04076 3.5 7.19891
      vertex 14.5045 3.5 5.97951
    endloop
  endfacet
  facet normal 0 1 0
    outer loop
      vertex 22.5 3.5 7.19891
      vertex 14.5045 3.5 5.97951
      vertex 1.04076 3.5 7.19891
    endloop
  endfacet
  facet normal 0 1 0
    outer loop
      vertex 22.5 3.5 7.19891
      vertex 16.4729 3.5 5.8164
      vertex 14.5045 3.5 5.97951
    endloop
  endfacet
  facet normal 0 1 0
    outer loop
      vertex 22.5 3.5 7.19891
      vertex 18.2817 3.5 5.023
      vertex 16.4729 3.5 5.8164
    endloop
  endfacet
  facet normal 0 1 0
    outer loop
      vertex 22.5 3.5 7.19891
      vertex 19.7348 3.5 3.68528
      vertex 18.2817 3.5 5.023
    endloop
  endfacet
  facet normal 0 1 0
    outer loop
      vertex 22.5 3.5 7.19891
      vertex 20.6749 3.5 1.9482
      vertex 19.7348 3.5 3.68528
    endloop
  endfacet
  facet normal 0 1 0
    outer loop
      vertex 22.5 3.5 7.19891
      vertex 21 3.5 7.77156e-16
      vertex 20.6749 3.5 1.9482
    endloop
  endfacet
  facet normal 0 1 -0
    outer loop
      vertex 22.5 3.5 -7
      vertex 21 3.5 7.77156e-16
      vertex 22.5 3.5 7.19891
    endloop
  endfacet
  facet normal 0 1 0
    outer loop
      vertex -22.5 3.5 -7
      vertex 14.5045 3.5 -5.97951
      vertex 22.5 3.5 -7
    endloop
  endfacet
  facet normal 0 1 0
    outer loop
      vertex 16.4729 3.5 -5.8164
      vertex 22.5 3.5 -7
      vertex 14.5045 3.5 -5.97951
    endloop
  endfacet
  facet normal 0 1 0
    outer loop
      vertex 18.2817 3.5 -5.023
      vertex 22.5 3.5 -7
      vertex 16.4729 3.5 -5.8164
    endloop
  endfacet
  facet normal 0 1 0
    outer loop
      vertex 19.7348 3.5 -3.68528
      vertex 22.5 3.5 -7
      vertex 18.2817 3.5 -5.023
    endloop
  endfacet
  facet normal 0 1 0
    outer loop
      vertex 20.6749 3.5 -1.9482
      vertex 22.5 3.5 -7
      vertex 19.7348 3.5 -3.68528
    endloop
  endfacet
  facet normal 0 1 0
    outer loop
      vertex 21 3.5 7.77156e-16
      vertex 22.5 3.5 -7
      vertex 20.6749 3.5 -1.9482
    endloop
  endfacet
  facet normal 0 1 0
    outer loop
      vertex 1.04076 3.5 7.19891
      vertex -15.4955 3.5 5.97951
      vertex -22.5 3.5 7.19891
    endloop
  endfacet
  facet normal 0 1 -0
    outer loop
      vertex -17.4102 3.5 5.49464
      vertex -22.5 3.5 7.19891
      vertex -15.4955 3.5 5.97951
    endloop
  endfacet
  facet normal 0 1 -0
    outer loop
      vertex -19.0637 3.5 4.41434
      vertex -22.5 3.5 7.19891
      vertex -17.4102 3.5 5.49464
    endloop
  endfacet
  facet normal 0 1 -0
    outer loop
      vertex -20.2768 3.5 2.85568
      vertex -22.5 3.5 7.19891
      vertex -19.0637 3.5 4.41434
    endloop
  endfacet
  facet normal 0 1 -0
    outer loop
      vertex -20.9182 3.5 0.987567
      vertex -22.5 3.5 7.19891
      vertex -20.2768 3.5 2.85568
    endloop
  endfacet
  facet normal 0 1 -0
    outer loop
      vertex -20.9182 3.5 -0.987567
      vertex -22.5 3.5 7.19891
      vertex -20.9182 3.5 0.987567
    endloop
  endfacet
  facet normal 0 1 0
    outer loop
      vertex -20.9182 3.5 -0.987567
      vertex -22.5 3.5 -7
      vertex -22.5 3.5 7.19891
    endloop
  endfacet
  facet normal 0 1 0
    outer loop
      vertex -20.2768 3.5 -2.85568
      vertex -22.5 3.5 -7
      vertex -20.9182 3.5 -0.987567
    endloop
  endfacet
  facet normal 0 1 0
    outer loop
      vertex -19.0637 3.5 -4.41434
      vertex -22.5 3.5 -7
      vertex -20.2768 3.5 -2.85568
    endloop
  endfacet
  facet normal 0 1 0
    outer loop
      vertex -17.4102 3.5 -5.49464
      vertex -22.5 3.5 -7
      vertex -19.0637 3.5 -4.41434
    endloop
  endfacet
  facet normal 0 1 0
    outer loop
      vertex -15.4955 3.5 -5.97951
      vertex -22.5 3.5 -7
      vertex -17.4102 3.5 -5.49464
    endloop
  endfacet
  facet normal 0 1 0
    outer loop
      vertex -13.5271 3.5 -5.8164
      vertex -22.5 3.5 -7
      vertex -15.4955 3.5 -5.97951
    endloop
  endfacet
  facet normal 0 0.707107 -0.707107
    outer loop
      vertex 23 2.5 -8
      vertex -22.5 3.5 -7
      vertex 22.5 3.5 -7
    endloop
  endfacet
  facet normal 0 0.707107 -0.707107
    outer loop
      vertex -22.5 3.5 -7
      vertex 23 2.5 -8
      vertex -23 2.5 -8
    endloop
  endfacet
  facet normal -0.986361 0 0.164596
    outer loop
      vertex -9.3251 3 -1.9482
      vertex -9 3.5 7.77156e-16
      vertex -9.3251 3.5 -1.9482
    endloop
  endfacet
  facet normal -0.986361 -3.65476e-17 0.164596
    outer loop
      vertex -9 3.5 7.77156e-16
      vertex -9.3251 3 -1.9482
      vertex -9 3 6.66134e-16
    endloop
  endfacet
  facet normal 1 -0 0
    outer loop
      vertex -20.9182 3 0.987567
      vertex -20.9182 3.5 -0.987567
      vertex -20.9182 3.5 0.987567
    endloop
  endfacet
  facet normal 1 0 0
    outer loop
      vertex -20.9182 3.5 -0.987567
      vertex -20.9182 3 0.987567
      vertex -20.9182 3 -0.987567
    endloop
  endfacet
  facet normal -0.0825812 0 0.996584
    outer loop
      vertex -15.4955 3.5 -5.97951
      vertex -13.5271 3 -5.8164
      vertex -13.5271 3.5 -5.8164
    endloop
  endfacet
  facet normal -0.0825812 0 0.996584
    outer loop
      vertex -13.5271 3 -5.8164
      vertex -15.4955 3.5 -5.97951
      vertex -15.4955 3 -5.97951
    endloop
  endfacet
  facet normal -0.40169 0 -0.915776
    outer loop
      vertex -13.5271 3 5.8164
      vertex -11.7183 3.5 5.023
      vertex -11.7183 3 5.023
    endloop
  endfacet
  facet normal -0.40169 0 -0.915776
    outer loop
      vertex -11.7183 3.5 5.023
      vertex -13.5271 3 5.8164
      vertex -13.5271 3.5 5.8164
    endloop
  endfacet
  facet normal -0.677295 0 0.735712
    outer loop
      vertex -11.7183 3.5 -5.023
      vertex -10.2652 3 -3.68528
      vertex -10.2652 3.5 -3.68528
    endloop
  endfacet
  facet normal -0.677295 0 0.735712
    outer loop
      vertex -10.2652 3 -3.68528
      vertex -11.7183 3.5 -5.023
      vertex -11.7183 3 -5.023
    endloop
  endfacet
  facet normal -0.879465 0 0.475963
    outer loop
      vertex -10.2652 3 -3.68528
      vertex -9.3251 3.5 -1.9482
      vertex -10.2652 3.5 -3.68528
    endloop
  endfacet
  facet normal -0.879465 0 0.475963
    outer loop
      vertex -9.3251 3.5 -1.9482
      vertex -10.2652 3 -3.68528
      vertex -9.3251 3 -1.9482
    endloop
  endfacet
  facet normal -0.40169 0 0.915776
    outer loop
      vertex -13.5271 3.5 -5.8164
      vertex -11.7183 3 -5.023
      vertex -11.7183 3.5 -5.023
    endloop
  endfacet
  facet normal -0.40169 0 0.915776
    outer loop
      vertex -11.7183 3 -5.023
      vertex -13.5271 3.5 -5.8164
      vertex -13.5271 3 -5.8164
    endloop
  endfacet
  facet normal 0.789154 -0 0.614196
    outer loop
      vertex -20.2768 3 -2.85568
      vertex -19.0637 3.5 -4.41434
      vertex -20.2768 3.5 -2.85568
    endloop
  endfacet
  facet normal 0.789154 0 0.614196
    outer loop
      vertex -19.0637 3.5 -4.41434
      vertex -20.2768 3 -2.85568
      vertex -19.0637 3 -4.41434
    endloop
  endfacet
  facet normal 0.945805 -0 0.324734
    outer loop
      vertex -20.9182 3 -0.987567
      vertex -20.2768 3.5 -2.85568
      vertex -20.9182 3.5 -0.987567
    endloop
  endfacet
  facet normal 0.945805 0 0.324734
    outer loop
      vertex -20.2768 3.5 -2.85568
      vertex -20.9182 3 -0.987567
      vertex -20.2768 3 -2.85568
    endloop
  endfacet
  facet normal 0.245486 0 0.9694
    outer loop
      vertex -17.4102 3.5 -5.49464
      vertex -15.4955 3 -5.97951
      vertex -15.4955 3.5 -5.97951
    endloop
  endfacet
  facet normal 0.245486 0 0.9694
    outer loop
      vertex -15.4955 3 -5.97951
      vertex -17.4102 3.5 -5.49464
      vertex -17.4102 3 -5.49464
    endloop
  endfacet
  facet normal -0.986361 3.65476e-17 -0.164596
    outer loop
      vertex -9 3 6.66134e-16
      vertex -9.3251 3.5 1.9482
      vertex -9 3.5 7.77156e-16
    endloop
  endfacet
  facet normal -0.986361 -0 -0.164596
    outer loop
      vertex -9.3251 3.5 1.9482
      vertex -9 3 6.66134e-16
      vertex -9.3251 3 1.9482
    endloop
  endfacet
  facet normal 0.546953 0 -0.837163
    outer loop
      vertex -19.0637 3 4.41434
      vertex -17.4102 3.5 5.49464
      vertex -17.4102 3 5.49464
    endloop
  endfacet
  facet normal 0.546953 0 -0.837163
    outer loop
      vertex -17.4102 3.5 5.49464
      vertex -19.0637 3 4.41434
      vertex -19.0637 3.5 4.41434
    endloop
  endfacet
  facet normal 0.945805 0 -0.324734
    outer loop
      vertex -20.2768 3 2.85568
      vertex -20.9182 3.5 0.987567
      vertex -20.2768 3.5 2.85568
    endloop
  endfacet
  facet normal 0.945805 0 -0.324734
    outer loop
      vertex -20.9182 3.5 0.987567
      vertex -20.2768 3 2.85568
      vertex -20.9182 3 0.987567
    endloop
  endfacet
  facet normal 0.546953 0 0.837163
    outer loop
      vertex -19.0637 3.5 -4.41434
      vertex -17.4102 3 -5.49464
      vertex -17.4102 3.5 -5.49464
    endloop
  endfacet
  facet normal 0.546953 0 0.837163
    outer loop
      vertex -17.4102 3 -5.49464
      vertex -19.0637 3.5 -4.41434
      vertex -19.0637 3 -4.41434
    endloop
  endfacet
  facet normal 0.245486 0 -0.9694
    outer loop
      vertex -17.4102 3 5.49464
      vertex -15.4955 3.5 5.97951
      vertex -15.4955 3 5.97951
    endloop
  endfacet
  facet normal 0.245486 0 -0.9694
    outer loop
      vertex -15.4955 3.5 5.97951
      vertex -17.4102 3 5.49464
      vertex -17.4102 3.5 5.49464
    endloop
  endfacet
  facet normal 0.789154 0 -0.614196
    outer loop
      vertex -19.0637 3 4.41434
      vertex -20.2768 3.5 2.85568
      vertex -19.0637 3.5 4.41434
    endloop
  endfacet
  facet normal 0.789154 0 -0.614196
    outer loop
      vertex -20.2768 3.5 2.85568
      vertex -19.0637 3 4.41434
      vertex -20.2768 3 2.85568
    endloop
  endfacet
  facet normal -0.677295 0 -0.735712
    outer loop
      vertex -11.7183 3 5.023
      vertex -10.2652 3.5 3.68528
      vertex -10.2652 3 3.68528
    endloop
  endfacet
  facet normal -0.677295 0 -0.735712
    outer loop
      vertex -10.2652 3.5 3.68528
      vertex -11.7183 3 5.023
      vertex -11.7183 3.5 5.023
    endloop
  endfacet
  facet normal -0.0825812 0 -0.996584
    outer loop
      vertex -15.4955 3 5.97951
      vertex -13.5271 3.5 5.8164
      vertex -13.5271 3 5.8164
    endloop
  endfacet
  facet normal -0.0825812 0 -0.996584
    outer loop
      vertex -13.5271 3.5 5.8164
      vertex -15.4955 3 5.97951
      vertex -15.4955 3.5 5.97951
    endloop
  endfacet
  facet normal -0.879465 0 -0.475963
    outer loop
      vertex -9.3251 3 1.9482
      vertex -10.2652 3.5 3.68528
      vertex -9.3251 3.5 1.9482
    endloop
  endfacet
  facet normal -0.879465 -0 -0.475963
    outer loop
      vertex -10.2652 3.5 3.68528
      vertex -9.3251 3 1.9482
      vertex -10.2652 3 3.68528
    endloop
  endfacet
  facet normal -0.626132 0.702234 -0.33886
    outer loop
      vertex -10.2652 3 3.68528
      vertex -9.3251 3 1.9482
      vertex -12.6326 -4.09148e-16 1.84264
    endloop
  endfacet
  facet normal -0.702235 0.702235 0.117183
    outer loop
      vertex -9 3 6.66134e-16
      vertex -9.3251 3 -1.9482
      vertex -12 0 0
    endloop
  endfacet
  facet normal -0.702249 0.702226 0.11715
    outer loop
      vertex -12 0 0
      vertex -9.3251 3 -1.9482
      vertex -12.1625 2.16293e-16 -0.974098
    endloop
  endfacet
  facet normal -0.702249 0.702226 -0.11715
    outer loop
      vertex -9.3251 3 1.9482
      vertex -12 0 0
      vertex -12.1625 -2.16293e-16 0.974098
    endloop
  endfacet
  facet normal 0.673362 0.702235 -0.231193
    outer loop
      vertex -17.6384 -3.17045e-16 1.42784
      vertex -17.9591 -1.09642e-16 0.493783
      vertex -20.9182 3 0.987567
    endloop
  endfacet
  facet normal -0.28598 0.702237 -0.65198
    outer loop
      vertex -11.7183 3 5.023
      vertex -13.3592 -5.57665e-16 2.5115
      vertex -13.5271 3 5.8164
    endloop
  endfacet
  facet normal -0.702235 0.702235 -0.117183
    outer loop
      vertex -9.3251 3 1.9482
      vertex -9 3 6.66134e-16
      vertex -12 0 0
    endloop
  endfacet
  facet normal -0.0587898 0.702234 -0.709514
    outer loop
      vertex -13.5271 3 5.8164
      vertex -14.2635 -6.4575e-16 2.9082
      vertex -15.2477 -6.63858e-16 2.98975
    endloop
  endfacet
  facet normal 0.174772 0.702238 0.690157
    outer loop
      vertex -15.2477 6.63858e-16 -2.98975
      vertex -15.4955 3 -5.97951
      vertex -17.4102 3 -5.49464
    endloop
  endfacet
  facet normal 0.389399 0.702239 0.596011
    outer loop
      vertex -17.0318 4.90091e-16 -2.20717
      vertex -17.4102 3 -5.49464
      vertex -19.0637 3 -4.41434
    endloop
  endfacet
  facet normal -0.28598 0.702237 0.65198
    outer loop
      vertex -13.3592 5.57665e-16 -2.5115
      vertex -11.7183 3 -5.023
      vertex -13.5271 3 -5.8164
    endloop
  endfacet
  facet normal -0.482194 0.702239 -0.523784
    outer loop
      vertex -10.2652 3 3.68528
      vertex -13.3592 -5.57665e-16 2.5115
      vertex -11.7183 3 5.023
    endloop
  endfacet
  facet normal -0.48218 0.702233 -0.523805
    outer loop
      vertex -13.3592 -5.57665e-16 2.5115
      vertex -10.2652 3 3.68528
      vertex -12.6326 -4.09148e-16 1.84264
    endloop
  endfacet
  facet normal -0.285975 0.702233 -0.651987
    outer loop
      vertex -13.5271 3 5.8164
      vertex -14.0729 0.0265269 2.85317
      vertex -14.2635 -6.4575e-16 2.9082
    endloop
  endfacet
  facet normal -0.286072 0.702221 -0.651957
    outer loop
      vertex -13.5271 3 5.8164
      vertex -13.9737 -6.17521e-16 2.78107
      vertex -14.0729 0.0265269 2.85317
    endloop
  endfacet
  facet normal -0.28601 0.70223 -0.651975
    outer loop
      vertex -13.9737 -6.17521e-16 2.78107
      vertex -13.5271 3 5.8164
      vertex -13.3592 -5.57665e-16 2.5115
    endloop
  endfacet
  facet normal -0.285902 0.702713 -0.651501
    outer loop
      vertex -14.2635 -6.4575e-16 2.9082
      vertex -14.0729 0.0265269 2.85317
      vertex -14.1381 -6.33531e-16 2.85317
    endloop
  endfacet
  facet normal 0.389399 0.702239 -0.596011
    outer loop
      vertex -17.4102 3 5.49464
      vertex -17.0318 -4.90091e-16 2.20717
      vertex -19.0637 3 4.41434
    endloop
  endfacet
  facet normal 0.561544 0.702555 -0.437132
    outer loop
      vertex -17.4271 0.0398187 1.76336
      vertex -17.0318 -4.90091e-16 2.20717
      vertex -17.3125 -4.10022e-16 1.84658
    endloop
  endfacet
  facet normal 0.561758 0.702248 -0.43735
    outer loop
      vertex -17.0318 -4.90091e-16 2.20717
      vertex -17.4271 0.0398187 1.76336
      vertex -19.0637 3 4.41434
    endloop
  endfacet
  facet normal 0.561478 0.702693 -0.436995
    outer loop
      vertex -17.6384 -3.17045e-16 1.42784
      vertex -17.4271 0.0398187 1.76336
      vertex -17.4627 -3.6717e-16 1.65359
    endloop
  endfacet
  facet normal 0.561914 0.70221 -0.437212
    outer loop
      vertex -17.4271 0.0398187 1.76336
      vertex -17.6384 -3.17045e-16 1.42784
      vertex -19.0637 3 4.41434
    endloop
  endfacet
  facet normal -2.6676e-21 1 2.22044e-16
    outer loop
      vertex -12.1625 -2.16293e-16 0.974098
      vertex -12 0 0
      vertex -12.5478 -3.74372e-16 1.68602
    endloop
  endfacet
  facet normal 2.6676e-21 1 2.22044e-16
    outer loop
      vertex -12 0 0
      vertex -12.1625 2.16293e-16 -0.974098
      vertex -12.5478 3.74372e-16 -1.68602
    endloop
  endfacet
  facet normal -1.76646e-20 1 2.22051e-16
    outer loop
      vertex -17.4627 -3.6717e-16 1.65359
      vertex -17.9591 -1.09642e-16 0.493783
      vertex -17.6384 -3.17045e-16 1.42784
    endloop
  endfacet
  facet normal -2.94213e-21 1 2.22045e-16
    outer loop
      vertex -17.9591 -1.09642e-16 0.493783
      vertex -17.4627 -3.6717e-16 1.65359
      vertex -17.9591 -2.79616e-17 0.125928
    endloop
  endfacet
  facet normal 1.73391e-20 1 2.22015e-16
    outer loop
      vertex -16.0019 -6.21451e-16 2.79876
      vertex -17.0318 -4.90091e-16 2.20717
      vertex -16.2051 -6.10027e-16 2.74732
    endloop
  endfacet
  facet normal -4.46788e-21 1 2.22053e-16
    outer loop
      vertex -17.0318 -4.90091e-16 2.20717
      vertex -16.0019 -6.21451e-16 2.79876
      vertex -17.3125 -4.10022e-16 1.84658
    endloop
  endfacet
  facet normal -1.19298e-20 1 2.22032e-16
    outer loop
      vertex -12.6005 -3.9599e-16 1.78338
      vertex -13.3592 -5.57665e-16 2.5115
      vertex -12.6326 -4.09148e-16 1.84264
    endloop
  endfacet
  facet normal 1.56039e-21 1 2.22046e-16
    outer loop
      vertex -13.3592 -5.57665e-16 2.5115
      vertex -12.6005 -3.9599e-16 1.78338
      vertex -13.9737 -6.17521e-16 2.78107
    endloop
  endfacet
  facet normal -5.41492e-22 1 2.22041e-16
    outer loop
      vertex -14.1381 -6.33531e-16 2.85317
      vertex -15.2477 -6.63858e-16 2.98975
      vertex -14.2635 -6.4575e-16 2.9082
    endloop
  endfacet
  facet normal 0 1 2.22046e-16
    outer loop
      vertex -15.2477 -6.63858e-16 2.98975
      vertex -14.1381 -6.33531e-16 2.85317
      vertex -15.7871 -6.33531e-16 2.85317
    endloop
  endfacet
  facet normal 4.46788e-21 1 2.22053e-16
    outer loop
      vertex -16.0019 6.21451e-16 -2.79876
      vertex -17.0318 4.90091e-16 -2.20717
      vertex -17.3125 4.10022e-16 -1.84658
    endloop
  endfacet
  facet normal -1.73391e-20 1 2.22015e-16
    outer loop
      vertex -17.0318 4.90091e-16 -2.20717
      vertex -16.0019 6.21451e-16 -2.79876
      vertex -16.2051 6.10027e-16 -2.74732
    endloop
  endfacet
  facet normal 1.19298e-20 1 2.22032e-16
    outer loop
      vertex -13.3592 5.57665e-16 -2.5115
      vertex -12.6005 3.9599e-16 -1.78338
      vertex -12.6326 4.09148e-16 -1.84264
    endloop
  endfacet
  facet normal -1.56039e-21 1 2.22046e-16
    outer loop
      vertex -12.6005 3.9599e-16 -1.78338
      vertex -13.3592 5.57665e-16 -2.5115
      vertex -13.9737 6.17521e-16 -2.78107
    endloop
  endfacet
  facet normal 2.94213e-21 1 2.22045e-16
    outer loop
      vertex -17.4627 3.6717e-16 -1.65359
      vertex -17.9591 1.09642e-16 -0.493783
      vertex -17.9591 2.79616e-17 -0.125928
    endloop
  endfacet
  facet normal 1.76646e-20 1 2.22051e-16
    outer loop
      vertex -17.9591 1.09642e-16 -0.493783
      vertex -17.4627 3.6717e-16 -1.65359
      vertex -17.6384 3.17045e-16 -1.42784
    endloop
  endfacet
  facet normal 5.41492e-22 1 2.22041e-16
    outer loop
      vertex -15.2477 6.63858e-16 -2.98975
      vertex -14.1381 6.33531e-16 -2.85317
      vertex -14.2635 6.4575e-16 -2.9082
    endloop
  endfacet
  facet normal 0 1 2.22046e-16
    outer loop
      vertex -14.1381 6.33531e-16 -2.85317
      vertex -15.2477 6.63858e-16 -2.98975
      vertex -15.7871 6.33531e-16 -2.85317
    endloop
  endfacet
  facet normal 0.174737 0.702306 -0.690096
    outer loop
      vertex -15.9271 0.0348327 2.85317
      vertex -15.2477 -6.63858e-16 2.98975
      vertex -15.7871 -6.33531e-16 2.85317
    endloop
  endfacet
  facet normal 0.174748 0.702231 -0.69017
    outer loop
      vertex -15.2477 -6.63858e-16 2.98975
      vertex -15.9271 0.0348327 2.85317
      vertex -17.4102 3 5.49464
    endloop
  endfacet
  facet normal 0.174637 0.702566 -0.689857
    outer loop
      vertex -16.2051 -6.10027e-16 2.74732
      vertex -15.9271 0.0348327 2.85317
      vertex -16.0019 -6.21451e-16 2.79876
    endloop
  endfacet
  facet normal 0.174791 0.702237 -0.690153
    outer loop
      vertex -15.9271 0.0348327 2.85317
      vertex -16.2051 -6.10027e-16 2.74732
      vertex -17.4102 3 5.49464
    endloop
  endfacet
  facet normal 0.711941 0.702239 0
    outer loop
      vertex -20.9182 3 0.987567
      vertex -18 0.0414822 9.2109e-18
      vertex -20.9182 3 -0.987567
    endloop
  endfacet
  facet normal 0.711945 0.702235 2.36921e-05
    outer loop
      vertex -17.9591 -1.09642e-16 0.493783
      vertex -18 0.0414822 9.2109e-18
      vertex -20.9182 3 0.987567
    endloop
  endfacet
  facet normal 0.712086 0.702092 1.61903e-16
    outer loop
      vertex -18 0.0414822 9.2109e-18
      vertex -17.9591 -1.09642e-16 0.493783
      vertex -17.9591 -2.79616e-17 0.125928
    endloop
  endfacet
  facet normal 0.711945 0.702235 -2.36921e-05
    outer loop
      vertex -18 0.0414822 9.2109e-18
      vertex -17.9591 1.09642e-16 -0.493783
      vertex -20.9182 3 -0.987567
    endloop
  endfacet
  facet normal 0.712086 0.702092 1.55896e-16
    outer loop
      vertex -17.9591 1.09642e-16 -0.493783
      vertex -18 0.0414822 9.2109e-18
      vertex -17.9591 2.79616e-17 -0.125928
    endloop
  endfacet
  facet normal -0.626007 0.702113 -0.339342
    outer loop
      vertex -12.5729 0.0149115 1.76336
      vertex -12.6326 -4.09148e-16 1.84264
      vertex -9.3251 3 1.9482
    endloop
  endfacet
  facet normal -0.625483 0.702835 -0.338812
    outer loop
      vertex -12.6326 -4.09148e-16 1.84264
      vertex -12.5729 0.0149115 1.76336
      vertex -12.6005 -3.9599e-16 1.78338
    endloop
  endfacet
  facet normal -0.626202 0.702282 -0.338631
    outer loop
      vertex -9.3251 3 1.9482
      vertex -12.5478 -3.74372e-16 1.68602
      vertex -12.5729 0.0149115 1.76336
    endloop
  endfacet
  facet normal -0.626133 0.702228 -0.33887
    outer loop
      vertex -12.5478 -3.74372e-16 1.68602
      vertex -9.3251 3 1.9482
      vertex -12.1625 -2.16293e-16 0.974098
    endloop
  endfacet
  facet normal 0.561835 0.702234 -0.437274
    outer loop
      vertex -19.0637 3 4.41434
      vertex -17.6384 -3.17045e-16 1.42784
      vertex -20.2768 3 2.85568
    endloop
  endfacet
  facet normal 0.673362 0.702235 -0.231193
    outer loop
      vertex -20.2768 3 2.85568
      vertex -17.6384 -3.17045e-16 1.42784
      vertex -20.9182 3 0.987567
    endloop
  endfacet
  facet normal 0.389418 0.702234 -0.596004
    outer loop
      vertex -16.2051 -6.10027e-16 2.74732
      vertex -17.0318 -4.90091e-16 2.20717
      vertex -17.4102 3 5.49464
    endloop
  endfacet
  facet normal 0.174772 0.702238 -0.690157
    outer loop
      vertex -15.4955 3 5.97951
      vertex -15.2477 -6.63858e-16 2.98975
      vertex -17.4102 3 5.49464
    endloop
  endfacet
  facet normal -0.0587933 0.702235 -0.709513
    outer loop
      vertex -13.5271 3 5.8164
      vertex -15.2477 -6.63858e-16 2.98975
      vertex -15.4955 3 5.97951
    endloop
  endfacet
  facet normal -0.0587898 0.702234 0.709514
    outer loop
      vertex -14.2635 6.4575e-16 -2.9082
      vertex -13.5271 3 -5.8164
      vertex -15.2477 6.63858e-16 -2.98975
    endloop
  endfacet
  facet normal -0.0587933 0.702235 0.709513
    outer loop
      vertex -15.2477 6.63858e-16 -2.98975
      vertex -13.5271 3 -5.8164
      vertex -15.4955 3 -5.97951
    endloop
  endfacet
  facet normal -0.48218 0.702233 0.523805
    outer loop
      vertex -10.2652 3 -3.68528
      vertex -13.3592 5.57665e-16 -2.5115
      vertex -12.6326 4.09148e-16 -1.84264
    endloop
  endfacet
  facet normal -0.482194 0.702239 0.523784
    outer loop
      vertex -13.3592 5.57665e-16 -2.5115
      vertex -10.2652 3 -3.68528
      vertex -11.7183 3 -5.023
    endloop
  endfacet
  facet normal 0.673362 0.702235 0.231193
    outer loop
      vertex -17.9591 1.09642e-16 -0.493783
      vertex -17.6384 3.17045e-16 -1.42784
      vertex -20.9182 3 -0.987567
    endloop
  endfacet
  facet normal 0.673362 0.702235 0.231193
    outer loop
      vertex -17.6384 3.17045e-16 -1.42784
      vertex -20.2768 3 -2.85568
      vertex -20.9182 3 -0.987567
    endloop
  endfacet
  facet normal 0.561478 0.702693 0.436995
    outer loop
      vertex -17.4271 0.0398187 -1.76336
      vertex -17.6384 3.17045e-16 -1.42784
      vertex -17.4627 3.6717e-16 -1.65359
    endloop
  endfacet
  facet normal 0.561544 0.702555 0.437132
    outer loop
      vertex -17.0318 4.90091e-16 -2.20717
      vertex -17.4271 0.0398187 -1.76336
      vertex -17.3125 4.10022e-16 -1.84658
    endloop
  endfacet
  facet normal 0.561914 0.70221 0.437212
    outer loop
      vertex -17.4271 0.0398187 -1.76336
      vertex -19.0637 3 -4.41434
      vertex -17.6384 3.17045e-16 -1.42784
    endloop
  endfacet
  facet normal 0.561758 0.702248 0.43735
    outer loop
      vertex -19.0637 3 -4.41434
      vertex -17.4271 0.0398187 -1.76336
      vertex -17.0318 4.90091e-16 -2.20717
    endloop
  endfacet
  facet normal 0.561835 0.702234 0.437274
    outer loop
      vertex -17.6384 3.17045e-16 -1.42784
      vertex -19.0637 3 -4.41434
      vertex -20.2768 3 -2.85568
    endloop
  endfacet
  facet normal 0.389418 0.702234 0.596004
    outer loop
      vertex -17.0318 4.90091e-16 -2.20717
      vertex -16.2051 6.10027e-16 -2.74732
      vertex -17.4102 3 -5.49464
    endloop
  endfacet
  facet normal 0.174737 0.702306 0.690096
    outer loop
      vertex -15.7871 6.33531e-16 -2.85317
      vertex -15.2477 6.63858e-16 -2.98975
      vertex -15.9271 0.0348327 -2.85317
    endloop
  endfacet
  facet normal 0.174637 0.702566 0.689857
    outer loop
      vertex -15.9271 0.0348327 -2.85317
      vertex -16.2051 6.10027e-16 -2.74732
      vertex -16.0019 6.21451e-16 -2.79876
    endloop
  endfacet
  facet normal 0.174791 0.702237 0.690153
    outer loop
      vertex -15.9271 0.0348327 -2.85317
      vertex -17.4102 3 -5.49464
      vertex -16.2051 6.10027e-16 -2.74732
    endloop
  endfacet
  facet normal 0.174748 0.702231 0.69017
    outer loop
      vertex -17.4102 3 -5.49464
      vertex -15.9271 0.0348327 -2.85317
      vertex -15.2477 6.63858e-16 -2.98975
    endloop
  endfacet
  facet normal -0.28601 0.70223 0.651975
    outer loop
      vertex -13.5271 3 -5.8164
      vertex -13.9737 6.17521e-16 -2.78107
      vertex -13.3592 5.57665e-16 -2.5115
    endloop
  endfacet
  facet normal -0.285902 0.702713 0.651501
    outer loop
      vertex -14.0729 0.0265269 -2.85317
      vertex -14.2635 6.4575e-16 -2.9082
      vertex -14.1381 6.33531e-16 -2.85317
    endloop
  endfacet
  facet normal -0.285975 0.702233 0.651987
    outer loop
      vertex -14.0729 0.0265269 -2.85317
      vertex -13.5271 3 -5.8164
      vertex -14.2635 6.4575e-16 -2.9082
    endloop
  endfacet
  facet normal -0.286072 0.702221 0.651957
    outer loop
      vertex -13.9737 6.17521e-16 -2.78107
      vertex -13.5271 3 -5.8164
      vertex -14.0729 0.0265269 -2.85317
    endloop
  endfacet
  facet normal -0.626132 0.702234 0.33886
    outer loop
      vertex -9.3251 3 -1.9482
      vertex -10.2652 3 -3.68528
      vertex -12.6326 4.09148e-16 -1.84264
    endloop
  endfacet
  facet normal -0.626133 0.702228 0.33887
    outer loop
      vertex -9.3251 3 -1.9482
      vertex -12.5478 3.74372e-16 -1.68602
      vertex -12.1625 2.16293e-16 -0.974098
    endloop
  endfacet
  facet normal -0.625483 0.702835 0.338812
    outer loop
      vertex -12.5729 0.0149115 -1.76336
      vertex -12.6326 4.09148e-16 -1.84264
      vertex -12.6005 3.9599e-16 -1.78338
    endloop
  endfacet
  facet normal -0.626007 0.702113 0.339342
    outer loop
      vertex -12.5729 0.0149115 -1.76336
      vertex -9.3251 3 -1.9482
      vertex -12.6326 4.09148e-16 -1.84264
    endloop
  endfacet
  facet normal -0.626202 0.702282 0.338631
    outer loop
      vertex -12.5478 3.74372e-16 -1.68602
      vertex -9.3251 3 -1.9482
      vertex -12.5729 0.0149115 -1.76336
    endloop
  endfacet
  facet normal -0.951162 0 0.308691
    outer loop
      vertex -12.5729 -2.5 -1.76336
      vertex -12.5478 3.74372e-16 -1.68602
      vertex -12.5729 0.0149115 -1.76336
    endloop
  endfacet
  facet normal -0.951065 -1.03015e-05 0.308992
    outer loop
      vertex -12 -2.5 -5.55112e-16
      vertex -12.5478 3.74372e-16 -1.68602
      vertex -12.5729 -2.5 -1.76336
    endloop
  endfacet
  facet normal -0.95106 -1.00202e-16 0.309006
    outer loop
      vertex -12.5478 3.74372e-16 -1.68602
      vertex -12 -2.5 -5.55112e-16
      vertex -12 0 0
    endloop
  endfacet
  facet normal 0.951093 -6.85906e-17 0.308904
    outer loop
      vertex -18 0.0414822 9.2109e-18
      vertex -18 -2.5 -5.55112e-16
      vertex -17.9591 2.79616e-17 -0.125928
    endloop
  endfacet
  facet normal 0.951051 7.29219e-06 0.309035
    outer loop
      vertex -18 -2.5 -5.55112e-16
      vertex -17.4627 3.6717e-16 -1.65359
      vertex -17.9591 2.79616e-17 -0.125928
    endloop
  endfacet
  facet normal 0.951065 -2.40802e-05 0.308992
    outer loop
      vertex -17.4271 -2.5 -1.76336
      vertex -17.4627 3.6717e-16 -1.65359
      vertex -18 -2.5 -5.55112e-16
    endloop
  endfacet
  facet normal 0.951226 0 0.308496
    outer loop
      vertex -17.4627 3.6717e-16 -1.65359
      vertex -17.4271 -2.5 -1.76336
      vertex -17.4271 0.0398187 -1.76336
    endloop
  endfacet
  facet normal 0 0 -1
    outer loop
      vertex -14.0729 -2.5 2.85317
      vertex -14.1381 -6.33531e-16 2.85317
      vertex -14.0729 0.0265269 2.85317
    endloop
  endfacet
  facet normal 0 0 -1
    outer loop
      vertex -14.0729 -2.5 2.85317
      vertex -15.7871 -6.33531e-16 2.85317
      vertex -14.1381 -6.33531e-16 2.85317
    endloop
  endfacet
  facet normal 0 0 -1
    outer loop
      vertex -15.9271 -2.5 2.85317
      vertex -15.7871 -6.33531e-16 2.85317
      vertex -14.0729 -2.5 2.85317
    endloop
  endfacet
  facet normal -0 0 -1
    outer loop
      vertex -15.7871 -6.33531e-16 2.85317
      vertex -15.9271 -2.5 2.85317
      vertex -15.9271 0.0348327 2.85317
    endloop
  endfacet
  facet normal -0 0 1
    outer loop
      vertex -14.1381 6.33531e-16 -2.85317
      vertex -14.0729 -2.5 -2.85317
      vertex -14.0729 0.0265269 -2.85317
    endloop
  endfacet
  facet normal -0 0 1
    outer loop
      vertex -15.7871 6.33531e-16 -2.85317
      vertex -14.0729 -2.5 -2.85317
      vertex -14.1381 6.33531e-16 -2.85317
    endloop
  endfacet
  facet normal 0 0 1
    outer loop
      vertex -15.9271 -2.5 -2.85317
      vertex -15.7871 6.33531e-16 -2.85317
      vertex -15.9271 0.0348327 -2.85317
    endloop
  endfacet
  facet normal 0 0 1
    outer loop
      vertex -15.7871 6.33531e-16 -2.85317
      vertex -15.9271 -2.5 -2.85317
      vertex -14.0729 -2.5 -2.85317
    endloop
  endfacet
  facet normal -0.58716 0 0.809471
    outer loop
      vertex -12.6005 3.9599e-16 -1.78338
      vertex -12.5729 -2.5 -1.76336
      vertex -12.5729 0.0149115 -1.76336
    endloop
  endfacet
  facet normal -0.587786 -1.05528e-05 0.809016
    outer loop
      vertex -13.9737 6.17521e-16 -2.78107
      vertex -12.5729 -2.5 -1.76336
      vertex -12.6005 3.9599e-16 -1.78338
    endloop
  endfacet
  facet normal -0.587929 0 0.808912
    outer loop
      vertex -14.0729 -2.5 -2.85317
      vertex -13.9737 6.17521e-16 -2.78107
      vertex -14.0729 0.0265269 -2.85317
    endloop
  endfacet
  facet normal -0.587784 -8.81247e-06 0.809018
    outer loop
      vertex -13.9737 6.17521e-16 -2.78107
      vertex -14.0729 -2.5 -2.85317
      vertex -12.5729 -2.5 -1.76336
    endloop
  endfacet
  facet normal 0.588242 0 0.808685
    outer loop
      vertex -16.0019 6.21451e-16 -2.79876
      vertex -15.9271 -2.5 -2.85317
      vertex -15.9271 0.0348327 -2.85317
    endloop
  endfacet
  facet normal 0.587774 -2.14033e-05 0.809025
    outer loop
      vertex -17.3125 4.10022e-16 -1.84658
      vertex -15.9271 -2.5 -2.85317
      vertex -16.0019 6.21451e-16 -2.79876
    endloop
  endfacet
  facet normal 0.587592 -0 0.809157
    outer loop
      vertex -17.4271 -2.5 -1.76336
      vertex -17.3125 4.10022e-16 -1.84658
      vertex -17.4271 0.0398187 -1.76336
    endloop
  endfacet
  facet normal 0.587784 -1.34245e-05 0.809018
    outer loop
      vertex -17.3125 4.10022e-16 -1.84658
      vertex -17.4271 -2.5 -1.76336
      vertex -15.9271 -2.5 -2.85317
    endloop
  endfacet
  facet normal -0.58716 0 -0.809471
    outer loop
      vertex -12.5729 -2.5 1.76336
      vertex -12.6005 -3.9599e-16 1.78338
      vertex -12.5729 0.0149115 1.76336
    endloop
  endfacet
  facet normal -0.587786 -1.05528e-05 -0.809016
    outer loop
      vertex -12.5729 -2.5 1.76336
      vertex -13.9737 -6.17521e-16 2.78107
      vertex -12.6005 -3.9599e-16 1.78338
    endloop
  endfacet
  facet normal -0.587784 -8.81247e-06 -0.809018
    outer loop
      vertex -14.0729 -2.5 2.85317
      vertex -13.9737 -6.17521e-16 2.78107
      vertex -12.5729 -2.5 1.76336
    endloop
  endfacet
  facet normal -0.587929 0 -0.808912
    outer loop
      vertex -13.9737 -6.17521e-16 2.78107
      vertex -14.0729 -2.5 2.85317
      vertex -14.0729 0.0265269 2.85317
    endloop
  endfacet
  facet normal 0.588242 0 -0.808685
    outer loop
      vertex -15.9271 -2.5 2.85317
      vertex -16.0019 -6.21451e-16 2.79876
      vertex -15.9271 0.0348327 2.85317
    endloop
  endfacet
  facet normal 0.587774 -2.14033e-05 -0.809025
    outer loop
      vertex -15.9271 -2.5 2.85317
      vertex -17.3125 -4.10022e-16 1.84658
      vertex -16.0019 -6.21451e-16 2.79876
    endloop
  endfacet
  facet normal 0.587784 -1.34245e-05 -0.809018
    outer loop
      vertex -17.4271 -2.5 1.76336
      vertex -17.3125 -4.10022e-16 1.84658
      vertex -15.9271 -2.5 2.85317
    endloop
  endfacet
  facet normal 0.587592 0 -0.809157
    outer loop
      vertex -17.3125 -4.10022e-16 1.84658
      vertex -17.4271 -2.5 1.76336
      vertex -17.4271 0.0398187 1.76336
    endloop
  endfacet
  facet normal 0.951226 0 -0.308496
    outer loop
      vertex -17.4271 0.0398187 1.76336
      vertex -17.4271 -2.5 1.76336
      vertex -17.4627 -3.6717e-16 1.65359
    endloop
  endfacet
  facet normal 0.951051 -2.61624e-05 -0.309035
    outer loop
      vertex -17.4271 -2.5 1.76336
      vertex -17.9591 -2.79616e-17 0.125928
      vertex -17.4627 -3.6717e-16 1.65359
    endloop
  endfacet
  facet normal 0.951065 4.90315e-06 -0.308992
    outer loop
      vertex -18 -2.5 -5.55112e-16
      vertex -17.9591 -2.79616e-17 0.125928
      vertex -17.4271 -2.5 1.76336
    endloop
  endfacet
  facet normal 0.951093 6.70174e-17 -0.308904
    outer loop
      vertex -17.9591 -2.79616e-17 0.125928
      vertex -18 -2.5 -5.55112e-16
      vertex -18 0.0414822 9.2109e-18
    endloop
  endfacet
  facet normal -0.95106 6.86132e-17 -0.309006
    outer loop
      vertex -12 0 0
      vertex -12 -2.5 -5.55112e-16
      vertex -12.5478 -3.74372e-16 1.68602
    endloop
  endfacet
  facet normal -0.951065 -1.03015e-05 -0.308992
    outer loop
      vertex -12.5729 -2.5 1.76336
      vertex -12.5478 -3.74372e-16 1.68602
      vertex -12 -2.5 -5.55112e-16
    endloop
  endfacet
  facet normal -0.951162 0 -0.308691
    outer loop
      vertex -12.5478 -3.74372e-16 1.68602
      vertex -12.5729 -2.5 1.76336
      vertex -12.5729 0.0149115 1.76336
    endloop
  endfacet
  facet normal -0.986361 0 0.164596
    outer loop
      vertex 20.6749 3 -1.9482
      vertex 21 3.5 7.77156e-16
      vertex 20.6749 3.5 -1.9482
    endloop
  endfacet
  facet normal -0.986361 -3.65476e-17 0.164596
    outer loop
      vertex 21 3.5 7.77156e-16
      vertex 20.6749 3 -1.9482
      vertex 21 3 6.66134e-16
    endloop
  endfacet
  facet normal 1 -0 0
    outer loop
      vertex 9.08183 3 0.987567
      vertex 9.08183 3.5 -0.987567
      vertex 9.08183 3.5 0.987567
    endloop
  endfacet
  facet normal 1 0 0
    outer loop
      vertex 9.08183 3.5 -0.987567
      vertex 9.08183 3 0.987567
      vertex 9.08183 3 -0.987567
    endloop
  endfacet
  facet normal -0.0825812 0 0.996584
    outer loop
      vertex 14.5045 3.5 -5.97951
      vertex 16.4729 3 -5.8164
      vertex 16.4729 3.5 -5.8164
    endloop
  endfacet
  facet normal -0.0825812 0 0.996584
    outer loop
      vertex 16.4729 3 -5.8164
      vertex 14.5045 3.5 -5.97951
      vertex 14.5045 3 -5.97951
    endloop
  endfacet
  facet normal -0.40169 0 -0.915776
    outer loop
      vertex 16.4729 3 5.8164
      vertex 18.2817 3.5 5.023
      vertex 18.2817 3 5.023
    endloop
  endfacet
  facet normal -0.40169 0 -0.915776
    outer loop
      vertex 18.2817 3.5 5.023
      vertex 16.4729 3 5.8164
      vertex 16.4729 3.5 5.8164
    endloop
  endfacet
  facet normal -0.677295 0 0.735712
    outer loop
      vertex 18.2817 3.5 -5.023
      vertex 19.7348 3 -3.68528
      vertex 19.7348 3.5 -3.68528
    endloop
  endfacet
  facet normal -0.677295 0 0.735712
    outer loop
      vertex 19.7348 3 -3.68528
      vertex 18.2817 3.5 -5.023
      vertex 18.2817 3 -5.023
    endloop
  endfacet
  facet normal -0.879465 0 0.475963
    outer loop
      vertex 19.7348 3 -3.68528
      vertex 20.6749 3.5 -1.9482
      vertex 19.7348 3.5 -3.68528
    endloop
  endfacet
  facet normal -0.879465 0 0.475963
    outer loop
      vertex 20.6749 3.5 -1.9482
      vertex 19.7348 3 -3.68528
      vertex 20.6749 3 -1.9482
    endloop
  endfacet
  facet normal -0.40169 0 0.915776
    outer loop
      vertex 16.4729 3.5 -5.8164
      vertex 18.2817 3 -5.023
      vertex 18.2817 3.5 -5.023
    endloop
  endfacet
  facet normal -0.40169 0 0.915776
    outer loop
      vertex 18.2817 3 -5.023
      vertex 16.4729 3.5 -5.8164
      vertex 16.4729 3 -5.8164
    endloop
  endfacet
  facet normal 0.789144 -0 0.614208
    outer loop
      vertex 9.72316 3 -2.85568
      vertex 10.9363 3.5 -4.41434
      vertex 9.72316 3.5 -2.85568
    endloop
  endfacet
  facet normal 0.789144 0 0.614208
    outer loop
      vertex 10.9363 3.5 -4.41434
      vertex 9.72316 3 -2.85568
      vertex 10.9363 3 -4.41434
    endloop
  endfacet
  facet normal 0.945816 -0 0.324702
    outer loop
      vertex 9.08183 3 -0.987567
      vertex 9.72316 3.5 -2.85568
      vertex 9.08183 3.5 -0.987567
    endloop
  endfacet
  facet normal 0.945816 0 0.324702
    outer loop
      vertex 9.72316 3.5 -2.85568
      vertex 9.08183 3 -0.987567
      vertex 9.72316 3 -2.85568
    endloop
  endfacet
  facet normal 0.245486 0 0.9694
    outer loop
      vertex 12.5898 3.5 -5.49464
      vertex 14.5045 3 -5.97951
      vertex 14.5045 3.5 -5.97951
    endloop
  endfacet
  facet normal 0.245486 0 0.9694
    outer loop
      vertex 14.5045 3 -5.97951
      vertex 12.5898 3.5 -5.49464
      vertex 12.5898 3 -5.49464
    endloop
  endfacet
  facet normal -0.986361 3.65476e-17 -0.164596
    outer loop
      vertex 21 3 6.66134e-16
      vertex 20.6749 3.5 1.9482
      vertex 21 3.5 7.77156e-16
    endloop
  endfacet
  facet normal -0.986361 -0 -0.164596
    outer loop
      vertex 20.6749 3.5 1.9482
      vertex 21 3 6.66134e-16
      vertex 20.6749 3 1.9482
    endloop
  endfacet
  facet normal 0.546953 0 -0.837163
    outer loop
      vertex 10.9363 3 4.41434
      vertex 12.5898 3.5 5.49464
      vertex 12.5898 3 5.49464
    endloop
  endfacet
  facet normal 0.546953 0 -0.837163
    outer loop
      vertex 12.5898 3.5 5.49464
      vertex 10.9363 3 4.41434
      vertex 10.9363 3.5 4.41434
    endloop
  endfacet
  facet normal 0.945816 0 -0.324702
    outer loop
      vertex 9.72316 3 2.85568
      vertex 9.08183 3.5 0.987567
      vertex 9.72316 3.5 2.85568
    endloop
  endfacet
  facet normal 0.945816 0 -0.324702
    outer loop
      vertex 9.08183 3.5 0.987567
      vertex 9.72316 3 2.85568
      vertex 9.08183 3 0.987567
    endloop
  endfacet
  facet normal 0.546953 0 0.837163
    outer loop
      vertex 10.9363 3.5 -4.41434
      vertex 12.5898 3 -5.49464
      vertex 12.5898 3.5 -5.49464
    endloop
  endfacet
  facet normal 0.546953 0 0.837163
    outer loop
      vertex 12.5898 3 -5.49464
      vertex 10.9363 3.5 -4.41434
      vertex 10.9363 3 -4.41434
    endloop
  endfacet
  facet normal 0.245486 0 -0.9694
    outer loop
      vertex 12.5898 3 5.49464
      vertex 14.5045 3.5 5.97951
      vertex 14.5045 3 5.97951
    endloop
  endfacet
  facet normal 0.245486 0 -0.9694
    outer loop
      vertex 14.5045 3.5 5.97951
      vertex 12.5898 3 5.49464
      vertex 12.5898 3.5 5.49464
    endloop
  endfacet
  facet normal 0.789144 0 -0.614208
    outer loop
      vertex 10.9363 3 4.41434
      vertex 9.72316 3.5 2.85568
      vertex 10.9363 3.5 4.41434
    endloop
  endfacet
  facet normal 0.789144 0 -0.614208
    outer loop
      vertex 9.72316 3.5 2.85568
      vertex 10.9363 3 4.41434
      vertex 9.72316 3 2.85568
    endloop
  endfacet
  facet normal -0.677295 0 -0.735712
    outer loop
      vertex 18.2817 3 5.023
      vertex 19.7348 3.5 3.68528
      vertex 19.7348 3 3.68528
    endloop
  endfacet
  facet normal -0.677295 0 -0.735712
    outer loop
      vertex 19.7348 3.5 3.68528
      vertex 18.2817 3 5.023
      vertex 18.2817 3.5 5.023
    endloop
  endfacet
  facet normal -0.0825812 0 -0.996584
    outer loop
      vertex 14.5045 3 5.97951
      vertex 16.4729 3.5 5.8164
      vertex 16.4729 3 5.8164
    endloop
  endfacet
  facet normal -0.0825812 0 -0.996584
    outer loop
      vertex 16.4729 3.5 5.8164
      vertex 14.5045 3 5.97951
      vertex 14.5045 3.5 5.97951
    endloop
  endfacet
  facet normal -0.879465 0 -0.475963
    outer loop
      vertex 20.6749 3 1.9482
      vertex 19.7348 3.5 3.68528
      vertex 20.6749 3.5 1.9482
    endloop
  endfacet
  facet normal -0.879465 -0 -0.475963
    outer loop
      vertex 19.7348 3.5 3.68528
      vertex 20.6749 3 1.9482
      vertex 19.7348 3 3.68528
    endloop
  endfacet
  facet normal -0.626132 0.702234 -0.33886
    outer loop
      vertex 19.7348 3 3.68528
      vertex 20.6749 3 1.9482
      vertex 17.3674 -4.09148e-16 1.84264
    endloop
  endfacet
  facet normal -0.702235 0.702235 0.117183
    outer loop
      vertex 21 3 6.66134e-16
      vertex 20.6749 3 -1.9482
      vertex 18 0 0
    endloop
  endfacet
  facet normal -0.702249 0.702226 0.11715
    outer loop
      vertex 18 0 0
      vertex 20.6749 3 -1.9482
      vertex 17.8375 2.16293e-16 -0.974098
    endloop
  endfacet
  facet normal -0.702249 0.702226 -0.11715
    outer loop
      vertex 20.6749 3 1.9482
      vertex 18 0 0
      vertex 17.8375 -2.16293e-16 0.974098
    endloop
  endfacet
  facet normal 0.673365 0.702231 -0.231194
    outer loop
      vertex 12.3616 -3.17045e-16 1.42784
      vertex 12.0409 -1.09642e-16 0.493783
      vertex 9.08183 3 0.987567
    endloop
  endfacet
  facet normal -0.28598 0.702237 -0.65198
    outer loop
      vertex 18.2817 3 5.023
      vertex 16.6408 -5.57665e-16 2.5115
      vertex 16.4729 3 5.8164
    endloop
  endfacet
  facet normal -0.702235 0.702235 -0.117183
    outer loop
      vertex 20.6749 3 1.9482
      vertex 21 3 6.66134e-16
      vertex 18 0 0
    endloop
  endfacet
  facet normal -0.0587898 0.702234 -0.709514
    outer loop
      vertex 16.4729 3 5.8164
      vertex 15.7365 -6.4575e-16 2.9082
      vertex 14.7523 -6.63858e-16 2.98975
    endloop
  endfacet
  facet normal 0.174772 0.702238 0.690157
    outer loop
      vertex 14.7523 6.63858e-16 -2.98975
      vertex 14.5045 3 -5.97951
      vertex 12.5898 3 -5.49464
    endloop
  endfacet
  facet normal 0.389399 0.702239 0.596011
    outer loop
      vertex 12.9682 4.90091e-16 -2.20717
      vertex 12.5898 3 -5.49464
      vertex 10.9363 3 -4.41434
    endloop
  endfacet
  facet normal -0.28598 0.702237 0.65198
    outer loop
      vertex 16.6408 5.57665e-16 -2.5115
      vertex 18.2817 3 -5.023
      vertex 16.4729 3 -5.8164
    endloop
  endfacet
  facet normal -0.482194 0.702239 -0.523784
    outer loop
      vertex 19.7348 3 3.68528
      vertex 16.6408 -5.57665e-16 2.5115
      vertex 18.2817 3 5.023
    endloop
  endfacet
  facet normal -0.48218 0.702233 -0.523805
    outer loop
      vertex 16.6408 -5.57665e-16 2.5115
      vertex 19.7348 3 3.68528
      vertex 17.3674 -4.09148e-16 1.84264
    endloop
  endfacet
  facet normal -0.285975 0.702233 -0.651987
    outer loop
      vertex 16.4729 3 5.8164
      vertex 15.9271 0.0265269 2.85317
      vertex 15.7365 -6.4575e-16 2.9082
    endloop
  endfacet
  facet normal -0.286072 0.702221 -0.651957
    outer loop
      vertex 16.4729 3 5.8164
      vertex 16.0263 -6.17521e-16 2.78107
      vertex 15.9271 0.0265269 2.85317
    endloop
  endfacet
  facet normal -0.28601 0.70223 -0.651975
    outer loop
      vertex 16.0263 -6.17521e-16 2.78107
      vertex 16.4729 3 5.8164
      vertex 16.6408 -5.57665e-16 2.5115
    endloop
  endfacet
  facet normal -0.285902 0.702713 -0.651501
    outer loop
      vertex 15.7365 -6.4575e-16 2.9082
      vertex 15.9271 0.0265269 2.85317
      vertex 15.8619 -6.33531e-16 2.85317
    endloop
  endfacet
  facet normal 0.389399 0.702239 -0.596011
    outer loop
      vertex 12.5898 3 5.49464
      vertex 12.9682 -4.90091e-16 2.20717
      vertex 10.9363 3 4.41434
    endloop
  endfacet
  facet normal 0.561544 0.702555 -0.437132
    outer loop
      vertex 12.5729 0.0398187 1.76336
      vertex 12.9682 -4.90091e-16 2.20717
      vertex 12.6875 -4.10022e-16 1.84658
    endloop
  endfacet
  facet normal 0.561758 0.702248 -0.43735
    outer loop
      vertex 12.9682 -4.90091e-16 2.20717
      vertex 12.5729 0.0398187 1.76336
      vertex 10.9363 3 4.41434
    endloop
  endfacet
  facet normal 0.561478 0.702693 -0.436995
    outer loop
      vertex 12.3616 -3.17045e-16 1.42784
      vertex 12.5729 0.0398187 1.76336
      vertex 12.5373 -3.6717e-16 1.65359
    endloop
  endfacet
  facet normal 0.561914 0.70221 -0.437212
    outer loop
      vertex 12.5729 0.0398187 1.76336
      vertex 12.3616 -3.17045e-16 1.42784
      vertex 10.9363 3 4.41434
    endloop
  endfacet
  facet normal -2.6676e-21 1 2.22044e-16
    outer loop
      vertex 17.8375 -2.16293e-16 0.974098
      vertex 18 0 0
      vertex 17.4522 -3.74372e-16 1.68602
    endloop
  endfacet
  facet normal 2.6676e-21 1 2.22044e-16
    outer loop
      vertex 18 0 0
      vertex 17.8375 2.16293e-16 -0.974098
      vertex 17.4522 3.74372e-16 -1.68602
    endloop
  endfacet
  facet normal -1.76646e-20 1 2.22051e-16
    outer loop
      vertex 12.5373 -3.6717e-16 1.65359
      vertex 12.0409 -1.09642e-16 0.493783
      vertex 12.3616 -3.17045e-16 1.42784
    endloop
  endfacet
  facet normal -2.94213e-21 1 2.22045e-16
    outer loop
      vertex 12.0409 -1.09642e-16 0.493783
      vertex 12.5373 -3.6717e-16 1.65359
      vertex 12.0409 -2.79616e-17 0.125928
    endloop
  endfacet
  facet normal 1.73391e-20 1 2.22015e-16
    outer loop
      vertex 13.9981 -6.21451e-16 2.79876
      vertex 12.9682 -4.90091e-16 2.20717
      vertex 13.7949 -6.10027e-16 2.74732
    endloop
  endfacet
  facet normal -4.46788e-21 1 2.22053e-16
    outer loop
      vertex 12.9682 -4.90091e-16 2.20717
      vertex 13.9981 -6.21451e-16 2.79876
      vertex 12.6875 -4.10022e-16 1.84658
    endloop
  endfacet
  facet normal -1.19298e-20 1 2.22032e-16
    outer loop
      vertex 17.3995 -3.9599e-16 1.78338
      vertex 16.6408 -5.57665e-16 2.5115
      vertex 17.3674 -4.09148e-16 1.84264
    endloop
  endfacet
  facet normal 1.56039e-21 1 2.22046e-16
    outer loop
      vertex 16.6408 -5.57665e-16 2.5115
      vertex 17.3995 -3.9599e-16 1.78338
      vertex 16.0263 -6.17521e-16 2.78107
    endloop
  endfacet
  facet normal -5.41492e-22 1 2.22041e-16
    outer loop
      vertex 15.8619 -6.33531e-16 2.85317
      vertex 14.7523 -6.63858e-16 2.98975
      vertex 15.7365 -6.4575e-16 2.9082
    endloop
  endfacet
  facet normal 0 1 2.22046e-16
    outer loop
      vertex 14.7523 -6.63858e-16 2.98975
      vertex 15.8619 -6.33531e-16 2.85317
      vertex 14.2129 -6.33531e-16 2.85317
    endloop
  endfacet
  facet normal 4.46788e-21 1 2.22053e-16
    outer loop
      vertex 13.9981 6.21451e-16 -2.79876
      vertex 12.9682 4.90091e-16 -2.20717
      vertex 12.6875 4.10022e-16 -1.84658
    endloop
  endfacet
  facet normal -1.73391e-20 1 2.22015e-16
    outer loop
      vertex 12.9682 4.90091e-16 -2.20717
      vertex 13.9981 6.21451e-16 -2.79876
      vertex 13.7949 6.10027e-16 -2.74732
    endloop
  endfacet
  facet normal 1.19298e-20 1 2.22032e-16
    outer loop
      vertex 16.6408 5.57665e-16 -2.5115
      vertex 17.3995 3.9599e-16 -1.78338
      vertex 17.3674 4.09148e-16 -1.84264
    endloop
  endfacet
  facet normal -1.56039e-21 1 2.22046e-16
    outer loop
      vertex 17.3995 3.9599e-16 -1.78338
      vertex 16.6408 5.57665e-16 -2.5115
      vertex 16.0263 6.17521e-16 -2.78107
    endloop
  endfacet
  facet normal 2.94213e-21 1 2.22045e-16
    outer loop
      vertex 12.5373 3.6717e-16 -1.65359
      vertex 12.0409 1.09642e-16 -0.493783
      vertex 12.0409 2.79616e-17 -0.125928
    endloop
  endfacet
  facet normal 1.76646e-20 1 2.22051e-16
    outer loop
      vertex 12.0409 1.09642e-16 -0.493783
      vertex 12.5373 3.6717e-16 -1.65359
      vertex 12.3616 3.17045e-16 -1.42784
    endloop
  endfacet
  facet normal 5.41492e-22 1 2.22041e-16
    outer loop
      vertex 14.7523 6.63858e-16 -2.98975
      vertex 15.8619 6.33531e-16 -2.85317
      vertex 15.7365 6.4575e-16 -2.9082
    endloop
  endfacet
  facet normal 0 1 2.22046e-16
    outer loop
      vertex 15.8619 6.33531e-16 -2.85317
      vertex 14.7523 6.63858e-16 -2.98975
      vertex 14.2129 6.33531e-16 -2.85317
    endloop
  endfacet
  facet normal 0.174737 0.702306 -0.690096
    outer loop
      vertex 14.0729 0.0348327 2.85317
      vertex 14.7523 -6.63858e-16 2.98975
      vertex 14.2129 -6.33531e-16 2.85317
    endloop
  endfacet
  facet normal 0.174748 0.702231 -0.69017
    outer loop
      vertex 14.7523 -6.63858e-16 2.98975
      vertex 14.0729 0.0348327 2.85317
      vertex 12.5898 3 5.49464
    endloop
  endfacet
  facet normal 0.174637 0.702566 -0.689857
    outer loop
      vertex 13.7949 -6.10027e-16 2.74732
      vertex 14.0729 0.0348327 2.85317
      vertex 13.9981 -6.21451e-16 2.79876
    endloop
  endfacet
  facet normal 0.174791 0.702237 -0.690153
    outer loop
      vertex 14.0729 0.0348327 2.85317
      vertex 13.7949 -6.10027e-16 2.74732
      vertex 12.5898 3 5.49464
    endloop
  endfacet
  facet normal 0.711945 0.702235 0
    outer loop
      vertex 9.08183 3 0.987567
      vertex 12 0.0414822 9.2109e-18
      vertex 9.08183 3 -0.987567
    endloop
  endfacet
  facet normal 0.711949 0.702232 2.31023e-05
    outer loop
      vertex 12.0409 -1.09642e-16 0.493783
      vertex 12 0.0414822 9.2109e-18
      vertex 9.08183 3 0.987567
    endloop
  endfacet
  facet normal 0.712086 0.702092 1.61903e-16
    outer loop
      vertex 12 0.0414822 9.2109e-18
      vertex 12.0409 -1.09642e-16 0.493783
      vertex 12.0409 -2.79616e-17 0.125928
    endloop
  endfacet
  facet normal 0.711949 0.702232 -2.31023e-05
    outer loop
      vertex 12 0.0414822 9.2109e-18
      vertex 12.0409 1.09642e-16 -0.493783
      vertex 9.08183 3 -0.987567
    endloop
  endfacet
  facet normal 0.712086 0.702092 1.55896e-16
    outer loop
      vertex 12.0409 1.09642e-16 -0.493783
      vertex 12 0.0414822 9.2109e-18
      vertex 12.0409 2.79616e-17 -0.125928
    endloop
  endfacet
  facet normal -0.626007 0.702113 -0.339342
    outer loop
      vertex 17.4271 0.0149115 1.76336
      vertex 17.3674 -4.09148e-16 1.84264
      vertex 20.6749 3 1.9482
    endloop
  endfacet
  facet normal -0.625483 0.702835 -0.338812
    outer loop
      vertex 17.3674 -4.09148e-16 1.84264
      vertex 17.4271 0.0149115 1.76336
      vertex 17.3995 -3.9599e-16 1.78338
    endloop
  endfacet
  facet normal -0.626202 0.702282 -0.338631
    outer loop
      vertex 20.6749 3 1.9482
      vertex 17.4522 -3.74372e-16 1.68602
      vertex 17.4271 0.0149115 1.76336
    endloop
  endfacet
  facet normal -0.626133 0.702228 -0.33887
    outer loop
      vertex 17.4522 -3.74372e-16 1.68602
      vertex 20.6749 3 1.9482
      vertex 17.8375 -2.16293e-16 0.974098
    endloop
  endfacet
  facet normal 0.561826 0.702237 -0.437281
    outer loop
      vertex 10.9363 3 4.41434
      vertex 12.3616 -3.17045e-16 1.42784
      vertex 9.72316 3 2.85568
    endloop
  endfacet
  facet normal 0.673367 0.702237 -0.231169
    outer loop
      vertex 9.72316 3 2.85568
      vertex 12.3616 -3.17045e-16 1.42784
      vertex 9.08183 3 0.987567
    endloop
  endfacet
  facet normal 0.389418 0.702234 -0.596004
    outer loop
      vertex 13.7949 -6.10027e-16 2.74732
      vertex 12.9682 -4.90091e-16 2.20717
      vertex 12.5898 3 5.49464
    endloop
  endfacet
  facet normal 0.174772 0.702238 -0.690157
    outer loop
      vertex 14.5045 3 5.97951
      vertex 14.7523 -6.63858e-16 2.98975
      vertex 12.5898 3 5.49464
    endloop
  endfacet
  facet normal -0.0587933 0.702235 -0.709513
    outer loop
      vertex 16.4729 3 5.8164
      vertex 14.7523 -6.63858e-16 2.98975
      vertex 14.5045 3 5.97951
    endloop
  endfacet
  facet normal -0.0587898 0.702234 0.709514
    outer loop
      vertex 15.7365 6.4575e-16 -2.9082
      vertex 16.4729 3 -5.8164
      vertex 14.7523 6.63858e-16 -2.98975
    endloop
  endfacet
  facet normal -0.0587933 0.702235 0.709513
    outer loop
      vertex 14.7523 6.63858e-16 -2.98975
      vertex 16.4729 3 -5.8164
      vertex 14.5045 3 -5.97951
    endloop
  endfacet
  facet normal -0.48218 0.702233 0.523805
    outer loop
      vertex 19.7348 3 -3.68528
      vertex 16.6408 5.57665e-16 -2.5115
      vertex 17.3674 4.09148e-16 -1.84264
    endloop
  endfacet
  facet normal -0.482194 0.702239 0.523784
    outer loop
      vertex 16.6408 5.57665e-16 -2.5115
      vertex 19.7348 3 -3.68528
      vertex 18.2817 3 -5.023
    endloop
  endfacet
  facet normal 0.673365 0.702231 0.231194
    outer loop
      vertex 12.0409 1.09642e-16 -0.493783
      vertex 12.3616 3.17045e-16 -1.42784
      vertex 9.08183 3 -0.987567
    endloop
  endfacet
  facet normal 0.673367 0.702237 0.231169
    outer loop
      vertex 12.3616 3.17045e-16 -1.42784
      vertex 9.72316 3 -2.85568
      vertex 9.08183 3 -0.987567
    endloop
  endfacet
  facet normal 0.561478 0.702693 0.436995
    outer loop
      vertex 12.5729 0.0398187 -1.76336
      vertex 12.3616 3.17045e-16 -1.42784
      vertex 12.5373 3.6717e-16 -1.65359
    endloop
  endfacet
  facet normal 0.561544 0.702555 0.437132
    outer loop
      vertex 12.9682 4.90091e-16 -2.20717
      vertex 12.5729 0.0398187 -1.76336
      vertex 12.6875 4.10022e-16 -1.84658
    endloop
  endfacet
  facet normal 0.561914 0.70221 0.437212
    outer loop
      vertex 12.5729 0.0398187 -1.76336
      vertex 10.9363 3 -4.41434
      vertex 12.3616 3.17045e-16 -1.42784
    endloop
  endfacet
  facet normal 0.561758 0.702248 0.43735
    outer loop
      vertex 10.9363 3 -4.41434
      vertex 12.5729 0.0398187 -1.76336
      vertex 12.9682 4.90091e-16 -2.20717
    endloop
  endfacet
  facet normal 0.561826 0.702237 0.437281
    outer loop
      vertex 12.3616 3.17045e-16 -1.42784
      vertex 10.9363 3 -4.41434
      vertex 9.72316 3 -2.85568
    endloop
  endfacet
  facet normal 0.389418 0.702234 0.596004
    outer loop
      vertex 12.9682 4.90091e-16 -2.20717
      vertex 13.7949 6.10027e-16 -2.74732
      vertex 12.5898 3 -5.49464
    endloop
  endfacet
  facet normal 0.174737 0.702306 0.690096
    outer loop
      vertex 14.2129 6.33531e-16 -2.85317
      vertex 14.7523 6.63858e-16 -2.98975
      vertex 14.0729 0.0348327 -2.85317
    endloop
  endfacet
  facet normal 0.174637 0.702566 0.689857
    outer loop
      vertex 14.0729 0.0348327 -2.85317
      vertex 13.7949 6.10027e-16 -2.74732
      vertex 13.9981 6.21451e-16 -2.79876
    endloop
  endfacet
  facet normal 0.174791 0.702237 0.690153
    outer loop
      vertex 14.0729 0.0348327 -2.85317
      vertex 12.5898 3 -5.49464
      vertex 13.7949 6.10027e-16 -2.74732
    endloop
  endfacet
  facet normal 0.174748 0.702231 0.69017
    outer loop
      vertex 12.5898 3 -5.49464
      vertex 14.0729 0.0348327 -2.85317
      vertex 14.7523 6.63858e-16 -2.98975
    endloop
  endfacet
  facet normal -0.28601 0.70223 0.651975
    outer loop
      vertex 16.4729 3 -5.8164
      vertex 16.0263 6.17521e-16 -2.78107
      vertex 16.6408 5.57665e-16 -2.5115
    endloop
  endfacet
  facet normal -0.285902 0.702713 0.651501
    outer loop
      vertex 15.9271 0.0265269 -2.85317
      vertex 15.7365 6.4575e-16 -2.9082
      vertex 15.8619 6.33531e-16 -2.85317
    endloop
  endfacet
  facet normal -0.285975 0.702233 0.651987
    outer loop
      vertex 15.9271 0.0265269 -2.85317
      vertex 16.4729 3 -5.8164
      vertex 15.7365 6.4575e-16 -2.9082
    endloop
  endfacet
  facet normal -0.286072 0.702221 0.651957
    outer loop
      vertex 16.0263 6.17521e-16 -2.78107
      vertex 16.4729 3 -5.8164
      vertex 15.9271 0.0265269 -2.85317
    endloop
  endfacet
  facet normal -0.626132 0.702234 0.33886
    outer loop
      vertex 20.6749 3 -1.9482
      vertex 19.7348 3 -3.68528
      vertex 17.3674 4.09148e-16 -1.84264
    endloop
  endfacet
  facet normal -0.626133 0.702228 0.33887
    outer loop
      vertex 20.6749 3 -1.9482
      vertex 17.4522 3.74372e-16 -1.68602
      vertex 17.8375 2.16293e-16 -0.974098
    endloop
  endfacet
  facet normal -0.625483 0.702835 0.338812
    outer loop
      vertex 17.4271 0.0149115 -1.76336
      vertex 17.3674 4.09148e-16 -1.84264
      vertex 17.3995 3.9599e-16 -1.78338
    endloop
  endfacet
  facet normal -0.626007 0.702113 0.339342
    outer loop
      vertex 17.4271 0.0149115 -1.76336
      vertex 20.6749 3 -1.9482
      vertex 17.3674 4.09148e-16 -1.84264
    endloop
  endfacet
  facet normal -0.626202 0.702282 0.338631
    outer loop
      vertex 17.4522 3.74372e-16 -1.68602
      vertex 20.6749 3 -1.9482
      vertex 17.4271 0.0149115 -1.76336
    endloop
  endfacet
  facet normal -0.951162 0 0.308691
    outer loop
      vertex 17.4271 -2.5 -1.76336
      vertex 17.4522 3.74372e-16 -1.68602
      vertex 17.4271 0.0149115 -1.76336
    endloop
  endfacet
  facet normal -0.951065 -1.03015e-05 0.308992
    outer loop
      vertex 18 -2.5 -5.55112e-16
      vertex 17.4522 3.74372e-16 -1.68602
      vertex 17.4271 -2.5 -1.76336
    endloop
  endfacet
  facet normal -0.95106 -1.00202e-16 0.309006
    outer loop
      vertex 17.4522 3.74372e-16 -1.68602
      vertex 18 -2.5 -5.55112e-16
      vertex 18 0 0
    endloop
  endfacet
  facet normal 0.951093 -6.85906e-17 0.308904
    outer loop
      vertex 12 0.0414822 9.2109e-18
      vertex 12 -2.5 -5.55112e-16
      vertex 12.0409 2.79616e-17 -0.125928
    endloop
  endfacet
  facet normal 0.951051 7.29219e-06 0.309035
    outer loop
      vertex 12 -2.5 -5.55112e-16
      vertex 12.5373 3.6717e-16 -1.65359
      vertex 12.0409 2.79616e-17 -0.125928
    endloop
  endfacet
  facet normal 0.951065 -2.40802e-05 0.308992
    outer loop
      vertex 12.5729 -2.5 -1.76336
      vertex 12.5373 3.6717e-16 -1.65359
      vertex 12 -2.5 -5.55112e-16
    endloop
  endfacet
  facet normal 0.951226 0 0.308496
    outer loop
      vertex 12.5373 3.6717e-16 -1.65359
      vertex 12.5729 -2.5 -1.76336
      vertex 12.5729 0.0398187 -1.76336
    endloop
  endfacet
  facet normal 0 0 -1
    outer loop
      vertex 15.9271 -2.5 2.85317
      vertex 15.8619 -6.33531e-16 2.85317
      vertex 15.9271 0.0265269 2.85317
    endloop
  endfacet
  facet normal 0 0 -1
    outer loop
      vertex 15.9271 -2.5 2.85317
      vertex 14.2129 -6.33531e-16 2.85317
      vertex 15.8619 -6.33531e-16 2.85317
    endloop
  endfacet
  facet normal 0 0 -1
    outer loop
      vertex 14.0729 -2.5 2.85317
      vertex 14.2129 -6.33531e-16 2.85317
      vertex 15.9271 -2.5 2.85317
    endloop
  endfacet
  facet normal -0 0 -1
    outer loop
      vertex 14.2129 -6.33531e-16 2.85317
      vertex 14.0729 -2.5 2.85317
      vertex 14.0729 0.0348327 2.85317
    endloop
  endfacet
  facet normal -0 0 1
    outer loop
      vertex 15.8619 6.33531e-16 -2.85317
      vertex 15.9271 -2.5 -2.85317
      vertex 15.9271 0.0265269 -2.85317
    endloop
  endfacet
  facet normal -0 0 1
    outer loop
      vertex 14.2129 6.33531e-16 -2.85317
      vertex 15.9271 -2.5 -2.85317
      vertex 15.8619 6.33531e-16 -2.85317
    endloop
  endfacet
  facet normal 0 0 1
    outer loop
      vertex 14.0729 -2.5 -2.85317
      vertex 14.2129 6.33531e-16 -2.85317
      vertex 14.0729 0.0348327 -2.85317
    endloop
  endfacet
  facet normal 0 0 1
    outer loop
      vertex 14.2129 6.33531e-16 -2.85317
      vertex 14.0729 -2.5 -2.85317
      vertex 15.9271 -2.5 -2.85317
    endloop
  endfacet
  facet normal -0.58716 0 0.809471
    outer loop
      vertex 17.3995 3.9599e-16 -1.78338
      vertex 17.4271 -2.5 -1.76336
      vertex 17.4271 0.0149115 -1.76336
    endloop
  endfacet
  facet normal -0.587786 -1.05528e-05 0.809016
    outer loop
      vertex 16.0263 6.17521e-16 -2.78107
      vertex 17.4271 -2.5 -1.76336
      vertex 17.3995 3.9599e-16 -1.78338
    endloop
  endfacet
  facet normal -0.587929 0 0.808912
    outer loop
      vertex 15.9271 -2.5 -2.85317
      vertex 16.0263 6.17521e-16 -2.78107
      vertex 15.9271 0.0265269 -2.85317
    endloop
  endfacet
  facet normal -0.587784 -8.81247e-06 0.809018
    outer loop
      vertex 16.0263 6.17521e-16 -2.78107
      vertex 15.9271 -2.5 -2.85317
      vertex 17.4271 -2.5 -1.76336
    endloop
  endfacet
  facet normal 0.588242 0 0.808685
    outer loop
      vertex 13.9981 6.21451e-16 -2.79876
      vertex 14.0729 -2.5 -2.85317
      vertex 14.0729 0.0348327 -2.85317
    endloop
  endfacet
  facet normal 0.587774 -2.14033e-05 0.809025
    outer loop
      vertex 12.6875 4.10022e-16 -1.84658
      vertex 14.0729 -2.5 -2.85317
      vertex 13.9981 6.21451e-16 -2.79876
    endloop
  endfacet
  facet normal 0.587592 -0 0.809157
    outer loop
      vertex 12.5729 -2.5 -1.76336
      vertex 12.6875 4.10022e-16 -1.84658
      vertex 12.5729 0.0398187 -1.76336
    endloop
  endfacet
  facet normal 0.587784 -1.34245e-05 0.809018
    outer loop
      vertex 12.6875 4.10022e-16 -1.84658
      vertex 12.5729 -2.5 -1.76336
      vertex 14.0729 -2.5 -2.85317
    endloop
  endfacet
  facet normal -0.58716 0 -0.809471
    outer loop
      vertex 17.4271 -2.5 1.76336
      vertex 17.3995 -3.9599e-16 1.78338
      vertex 17.4271 0.0149115 1.76336
    endloop
  endfacet
  facet normal -0.587786 -1.05528e-05 -0.809016
    outer loop
      vertex 17.4271 -2.5 1.76336
      vertex 16.0263 -6.17521e-16 2.78107
      vertex 17.3995 -3.9599e-16 1.78338
    endloop
  endfacet
  facet normal -0.587784 -8.81247e-06 -0.809018
    outer loop
      vertex 15.9271 -2.5 2.85317
      vertex 16.0263 -6.17521e-16 2.78107
      vertex 17.4271 -2.5 1.76336
    endloop
  endfacet
  facet normal -0.587929 0 -0.808912
    outer loop
      vertex 16.0263 -6.17521e-16 2.78107
      vertex 15.9271 -2.5 2.85317
      vertex 15.9271 0.0265269 2.85317
    endloop
  endfacet
  facet normal 0.588242 0 -0.808685
    outer loop
      vertex 14.0729 -2.5 2.85317
      vertex 13.9981 -6.21451e-16 2.79876
      vertex 14.0729 0.0348327 2.85317
    endloop
  endfacet
  facet normal 0.587774 -2.14033e-05 -0.809025
    outer loop
      vertex 14.0729 -2.5 2.85317
      vertex 12.6875 -4.10022e-16 1.84658
      vertex 13.9981 -6.21451e-16 2.79876
    endloop
  endfacet
  facet normal 0.587784 -1.34245e-05 -0.809018
    outer loop
      vertex 12.5729 -2.5 1.76336
      vertex 12.6875 -4.10022e-16 1.84658
      vertex 14.0729 -2.5 2.85317
    endloop
  endfacet
  facet normal 0.587592 0 -0.809157
    outer loop
      vertex 12.6875 -4.10022e-16 1.84658
      vertex 12.5729 -2.5 1.76336
      vertex 12.5729 0.0398187 1.76336
    endloop
  endfacet
  facet normal 0.951226 0 -0.308496
    outer loop
      vertex 12.5729 0.0398187 1.76336
      vertex 12.5729 -2.5 1.76336
      vertex 12.5373 -3.6717e-16 1.65359
    endloop
  endfacet
  facet normal 0.951051 -2.61624e-05 -0.309035
    outer loop
      vertex 12.5729 -2.5 1.76336
      vertex 12.0409 -2.79616e-17 0.125928
      vertex 12.5373 -3.6717e-16 1.65359
    endloop
  endfacet
  facet normal 0.951065 4.90315e-06 -0.308992
    outer loop
      vertex 12 -2.5 -5.55112e-16
      vertex 12.0409 -2.79616e-17 0.125928
      vertex 12.5729 -2.5 1.76336
    endloop
  endfacet
  facet normal 0.951093 6.70174e-17 -0.308904
    outer loop
      vertex 12.0409 -2.79616e-17 0.125928
      vertex 12 -2.5 -5.55112e-16
      vertex 12 0.0414822 9.2109e-18
    endloop
  endfacet
  facet normal -0.95106 6.86132e-17 -0.309006
    outer loop
      vertex 18 0 0
      vertex 18 -2.5 -5.55112e-16
      vertex 17.4522 -3.74372e-16 1.68602
    endloop
  endfacet
  facet normal -0.951065 -1.03015e-05 -0.308992
    outer loop
      vertex 17.4271 -2.5 1.76336
      vertex 17.4522 -3.74372e-16 1.68602
      vertex 18 -2.5 -5.55112e-16
    endloop
  endfacet
  facet normal -0.951162 0 -0.308691
    outer loop
      vertex 17.4522 -3.74372e-16 1.68602
      vertex 17.4271 -2.5 1.76336
      vertex 17.4271 0.0149115 1.76336
    endloop
  endfacet
  facet normal 0 -0.309017 0.951057
    outer loop
      vertex 23 4.26336 9.57295
      vertex -23 4.26336 9.57295
      vertex -23 2.5 9
    endloop
  endfacet
  facet normal 0 -0.309017 0.951057
    outer loop
      vertex 23 2.5 9
      vertex 23 4.26336 9.57295
      vertex -23 2.5 9
    endloop
  endfacet
  facet normal 0 0.308993 -0.951064
    outer loop
      vertex -23 2.5 15
      vertex 23 2.5 15
      vertex -23 0.736644 14.4271
    endloop
  endfacet
  facet normal 0 -0.809009 0.587797
    outer loop
      vertex -23 4.26336 9.57295
      vertex 23 5.35317 11.0729
      vertex -23 5.35317 11.0729
    endloop
  endfacet
  facet normal 0 -0.809009 0.587797
    outer loop
      vertex 23 5.35317 11.0729
      vertex -23 4.26336 9.57295
      vertex 23 4.26336 9.57295
    endloop
  endfacet
  facet normal -0 -0.308992 -0.951065
    outer loop
      vertex 23 4.26336 14.4271
      vertex 23 2.5 15
      vertex -23 4.26336 14.4271
    endloop
  endfacet
  facet normal 0 -0.809018 -0.587784
    outer loop
      vertex -23 5.35317 12.9271
      vertex 23 4.26336 14.4271
      vertex -23 4.26336 14.4271
    endloop
  endfacet
  facet normal 0 -0.809018 -0.587784
    outer loop
      vertex 23 4.26336 14.4271
      vertex -23 5.35317 12.9271
      vertex 23 5.35317 12.9271
    endloop
  endfacet
  facet normal 0 -1 0
    outer loop
      vertex -23 5.35317 11.0729
      vertex 23 5.35317 12.9271
      vertex -23 5.35317 12.9271
    endloop
  endfacet
  facet normal 0 -1 -0
    outer loop
      vertex 23 5.35317 12.9271
      vertex -23 5.35317 11.0729
      vertex 23 5.35317 11.0729
    endloop
  endfacet
  facet normal 0 0.309017 0.951056
    outer loop
      vertex 23 0.736644 9.57295
      vertex -23 2.5 9
      vertex -23 0.736644 9.57295
    endloop
  endfacet
  facet normal 0 0.309017 0.951056
    outer loop
      vertex 23 0.736644 9.57295
      vertex 23 2.5 9
      vertex -23 2.5 9
    endloop
  endfacet
  facet normal 0 -0.308992 -0.951065
    outer loop
      vertex -23 4.26336 14.4271
      vertex 23 2.5 15
      vertex -23 2.5 15
    endloop
  endfacet
  facet normal 0 0.809017 -0.587785
    outer loop
      vertex 23 -0.353169 12.9271
      vertex -23 0.736644 14.4271
      vertex 23 0.736644 14.4271
    endloop
  endfacet
  facet normal 0 0.809017 -0.587785
    outer loop
      vertex -23 0.736644 14.4271
      vertex 23 -0.353169 12.9271
      vertex -23 -0.353169 12.9271
    endloop
  endfacet
  facet normal 0 0.308993 -0.951064
    outer loop
      vertex 23 2.5 15
      vertex 23 0.736644 14.4271
      vertex -23 0.736644 14.4271
    endloop
  endfacet
  facet normal 0 0.809008 0.587798
    outer loop
      vertex 23 0.736644 9.57295
      vertex -23 -0.353169 11.0729
      vertex 23 -0.353169 11.0729
    endloop
  endfacet
  facet normal 0 0.809008 0.587798
    outer loop
      vertex -23 -0.353169 11.0729
      vertex 23 0.736644 9.57295
      vertex -23 0.736644 9.57295
    endloop
  endfacet
  facet normal 0 1 -0
    outer loop
      vertex 23 -0.353169 11.0729
      vertex -23 -0.353169 12.9271
      vertex 23 -0.353169 12.9271
    endloop
  endfacet
  facet normal 0 1 0
    outer loop
      vertex -23 -0.353169 12.9271
      vertex 23 -0.353169 11.0729
      vertex -23 -0.353169 11.0729
    endloop
  endfacet
endsolid OpenSCAD_Model
